%TF.GenerationSoftware,KiCad,Pcbnew,9.0.7*%
%TF.CreationDate,2026-02-11T16:14:45+01:00*%
%TF.ProjectId,6gend-mb1,3667656e-642d-46d6-9231-2e6b69636164,1a*%
%TF.SameCoordinates,Original*%
%TF.FileFunction,Legend,Bot*%
%TF.FilePolarity,Positive*%
%FSLAX46Y46*%
G04 Gerber Fmt 4.6, Leading zero omitted, Abs format (unit mm)*
G04 Created by KiCad (PCBNEW 9.0.7) date 2026-02-11 16:14:45*
%MOMM*%
%LPD*%
G01*
G04 APERTURE LIST*
%ADD10C,0.150000*%
%ADD11C,0.100000*%
G04 APERTURE END LIST*
D10*
G36*
X146137911Y-108287086D02*
G01*
X146268056Y-108342210D01*
X146307440Y-108367855D01*
X146305608Y-108367855D01*
X146394766Y-108445846D01*
X146464672Y-108544016D01*
X148568213Y-112188729D01*
X148570045Y-112188729D01*
X148571877Y-112192088D01*
X148575235Y-112200636D01*
X148607597Y-112272383D01*
X148629884Y-112345961D01*
X148634823Y-112542646D01*
X148568213Y-112723621D01*
X148568213Y-112725453D01*
X148566687Y-112725453D01*
X148522112Y-112792009D01*
X148467463Y-112850322D01*
X148294684Y-112960572D01*
X148094993Y-112997173D01*
X143889131Y-112997173D01*
X143884856Y-112997173D01*
X143880582Y-112997173D01*
X143802119Y-112988625D01*
X143726709Y-112971528D01*
X143553367Y-112879020D01*
X143424459Y-112726674D01*
X143424459Y-112725148D01*
X143422627Y-112725148D01*
X143388433Y-112651570D01*
X143383038Y-112632946D01*
X143832650Y-112632946D01*
X143909586Y-112670804D01*
X143950497Y-112681184D01*
X143993239Y-112682711D01*
X143994766Y-112684542D01*
X147993021Y-112684542D01*
X148102815Y-112665071D01*
X148194827Y-112607301D01*
X148223831Y-112574938D01*
X148247644Y-112538607D01*
X148249476Y-112538607D01*
X148284774Y-112442098D01*
X148281838Y-112334665D01*
X148269931Y-112293143D01*
X148252834Y-112254064D01*
X148249476Y-112248874D01*
X147309446Y-110613363D01*
X147037726Y-110771205D01*
X147058915Y-110862906D01*
X147111304Y-110991329D01*
X147171144Y-111140928D01*
X147176296Y-111229714D01*
X147141835Y-111405626D01*
X147123211Y-111476456D01*
X147121379Y-111481646D01*
X147121379Y-111483173D01*
X147089017Y-111673988D01*
X147056655Y-111859612D01*
X147001700Y-112002494D01*
X146957431Y-112114235D01*
X146947051Y-112145071D01*
X146891005Y-112288983D01*
X146846301Y-112360310D01*
X146782819Y-112413508D01*
X146709525Y-112430530D01*
X146628925Y-112416791D01*
X146560537Y-112375881D01*
X146493034Y-112295161D01*
X146471388Y-112201552D01*
X146472168Y-112197583D01*
X146543745Y-112197583D01*
X146543745Y-112199110D01*
X146563452Y-112261794D01*
X146611523Y-112317262D01*
X146628314Y-112331001D01*
X146626531Y-112297723D01*
X146666782Y-112297723D01*
X146666782Y-112327032D01*
X146666782Y-112349930D01*
X146704335Y-112355120D01*
X146747136Y-112344345D01*
X146788293Y-112309019D01*
X146873778Y-112120036D01*
X146882327Y-112097749D01*
X146873778Y-112094391D01*
X146842943Y-112091032D01*
X146775481Y-112110423D01*
X146717768Y-112173770D01*
X146707388Y-112193309D01*
X146697008Y-112207658D01*
X146668309Y-112267192D01*
X146666782Y-112297723D01*
X146626531Y-112297723D01*
X146626482Y-112296807D01*
X146629841Y-112253759D01*
X146664035Y-112181707D01*
X146684185Y-112152398D01*
X146757153Y-112072511D01*
X146842943Y-112047984D01*
X146883853Y-112053175D01*
X146895760Y-112056533D01*
X146929954Y-111968911D01*
X146983077Y-111835188D01*
X147012081Y-111661775D01*
X147046275Y-111462718D01*
X147046275Y-111457527D01*
X147066730Y-111383644D01*
X147098613Y-111233626D01*
X147095734Y-111160772D01*
X147041085Y-111023386D01*
X146964148Y-110812421D01*
X146567559Y-111044146D01*
X146580520Y-111099208D01*
X146625261Y-111181533D01*
X146688154Y-111306707D01*
X146686317Y-111375155D01*
X146652739Y-111503934D01*
X146623735Y-111632772D01*
X146635642Y-111801299D01*
X146634115Y-111822670D01*
X146630451Y-111844042D01*
X146618545Y-111888616D01*
X146603279Y-111939907D01*
X146543745Y-112197583D01*
X146472168Y-112197583D01*
X146522069Y-111943571D01*
X146475968Y-111971048D01*
X146419181Y-112013790D01*
X146432309Y-112126142D01*
X146432309Y-112136828D01*
X146432309Y-112146903D01*
X146409961Y-112289150D01*
X146350488Y-112380460D01*
X146308964Y-112408968D01*
X146247295Y-112425340D01*
X146165779Y-112425340D01*
X146095254Y-112404274D01*
X146033888Y-112365806D01*
X145939549Y-112265971D01*
X145879311Y-112300894D01*
X145812848Y-112312377D01*
X145737518Y-112303727D01*
X145680957Y-112265971D01*
X145672409Y-112255591D01*
X145651343Y-112223229D01*
X145639436Y-112186898D01*
X145641637Y-112124059D01*
X145714655Y-112124059D01*
X145715457Y-112170106D01*
X145722173Y-112189035D01*
X145734080Y-112207658D01*
X145737438Y-112212848D01*
X145807658Y-112235136D01*
X145893143Y-112202773D01*
X145894670Y-112202773D01*
X145840020Y-112077904D01*
X145836433Y-112063555D01*
X145914209Y-112063555D01*
X145982597Y-112193920D01*
X146079989Y-112305355D01*
X146128227Y-112334665D01*
X146172496Y-112346571D01*
X146174328Y-112346571D01*
X146237526Y-112346571D01*
X146294617Y-112322452D01*
X146323969Y-112279394D01*
X146334612Y-112216817D01*
X146334612Y-112178654D01*
X146301945Y-112102329D01*
X146212491Y-112047069D01*
X146201195Y-112044626D01*
X146189898Y-112040352D01*
X146177991Y-112038520D01*
X146166085Y-112034856D01*
X146138302Y-112027529D01*
X146014959Y-112027529D01*
X145914209Y-112063555D01*
X145836433Y-112063555D01*
X145831472Y-112043710D01*
X145776823Y-112065997D01*
X145737438Y-112077904D01*
X145714655Y-112124059D01*
X145641637Y-112124059D01*
X145642794Y-112091032D01*
X145626613Y-112091032D01*
X145608906Y-112091032D01*
X145516515Y-112077185D01*
X145466939Y-112042794D01*
X145453201Y-112016844D01*
X145435799Y-111927084D01*
X145437221Y-111923115D01*
X145513040Y-111923115D01*
X145528306Y-111989672D01*
X145530137Y-111993335D01*
X145610432Y-112013790D01*
X145753009Y-111991503D01*
X145804300Y-111967690D01*
X145800026Y-111957309D01*
X145793920Y-111946929D01*
X145711488Y-111842821D01*
X145629361Y-111786339D01*
X145536854Y-111870298D01*
X145533801Y-111875488D01*
X145526779Y-111880373D01*
X145513040Y-111923115D01*
X145437221Y-111923115D01*
X145470908Y-111829082D01*
X145479152Y-111818702D01*
X145559141Y-111739323D01*
X145480678Y-111674293D01*
X143832650Y-112632946D01*
X143383038Y-112632946D01*
X143366146Y-112574633D01*
X143358910Y-112372198D01*
X143361403Y-112365500D01*
X143705033Y-112365500D01*
X143706559Y-112367027D01*
X143706559Y-112391146D01*
X143706559Y-112435720D01*
X145086582Y-111632772D01*
X145548761Y-111632772D01*
X145668440Y-111718562D01*
X145757894Y-111780233D01*
X145864445Y-111912735D01*
X145894975Y-111982955D01*
X145905355Y-112017149D01*
X145964890Y-111997609D01*
X146003663Y-111988145D01*
X146159063Y-111996693D01*
X146174633Y-112000052D01*
X146188677Y-112003715D01*
X146200584Y-112005242D01*
X146226535Y-112015317D01*
X146331864Y-112077294D01*
X146354152Y-112115151D01*
X146337013Y-112005677D01*
X146281374Y-111885497D01*
X146209695Y-111792445D01*
X146304998Y-111792445D01*
X146393230Y-111931359D01*
X146437500Y-111904187D01*
X146486348Y-111869687D01*
X146511994Y-111847400D01*
X146529091Y-111835493D01*
X146556568Y-111819923D01*
X146558400Y-111809542D01*
X146559926Y-111795804D01*
X146549546Y-111649869D01*
X146550321Y-111596212D01*
X146580382Y-111478288D01*
X146613049Y-111320446D01*
X146563285Y-111226107D01*
X146494897Y-111087194D01*
X146382850Y-111154056D01*
X146421929Y-111231297D01*
X146432309Y-111330826D01*
X146432309Y-111393719D01*
X146432309Y-111456001D01*
X146417349Y-111583312D01*
X146417349Y-111584839D01*
X146404221Y-111620865D01*
X146387124Y-111655059D01*
X146304998Y-111792445D01*
X146209695Y-111792445D01*
X146176770Y-111749703D01*
X146005190Y-111587587D01*
X145985144Y-111572627D01*
X146105940Y-111572627D01*
X146230198Y-111696275D01*
X146244548Y-111712456D01*
X146257370Y-111727110D01*
X146318126Y-111624223D01*
X146331254Y-111593082D01*
X146341024Y-111564078D01*
X146354152Y-111454474D01*
X146354152Y-111330826D01*
X146345298Y-111252058D01*
X146312936Y-111194050D01*
X146172496Y-111272513D01*
X146188066Y-111368379D01*
X146165779Y-111461191D01*
X146157231Y-111478288D01*
X146105940Y-111572627D01*
X145985144Y-111572627D01*
X145840326Y-111464549D01*
X145548761Y-111632772D01*
X145086582Y-111632772D01*
X145219338Y-111555530D01*
X145083185Y-111471722D01*
X144917088Y-111325636D01*
X144861217Y-111265491D01*
X144820001Y-111212369D01*
X144750087Y-111059717D01*
X144693606Y-110929352D01*
X144693606Y-110927520D01*
X144616974Y-110824328D01*
X144579422Y-110791966D01*
X144577896Y-110791966D01*
X143745943Y-112241547D01*
X143745943Y-112243379D01*
X143705033Y-112365500D01*
X143361403Y-112365500D01*
X143429344Y-112182929D01*
X144270608Y-110723272D01*
X144618806Y-110723272D01*
X144671624Y-110769678D01*
X144760162Y-110887831D01*
X144821833Y-111033766D01*
X144883199Y-111167794D01*
X144920751Y-111215727D01*
X144972042Y-111270682D01*
X145164426Y-111436633D01*
X145304518Y-111505765D01*
X145449369Y-111421807D01*
X145913904Y-111421807D01*
X146045795Y-111521031D01*
X146088538Y-111445926D01*
X146095254Y-111428829D01*
X146108993Y-111366852D01*
X146102276Y-111311898D01*
X145913904Y-111421807D01*
X145449369Y-111421807D01*
X146817297Y-110628934D01*
X146740055Y-110561156D01*
X146628620Y-110483304D01*
X146565116Y-110446362D01*
X146460703Y-110380416D01*
X146288913Y-110269619D01*
X146153872Y-110209446D01*
X146012107Y-110176263D01*
X145828114Y-110163956D01*
X145723700Y-110163956D01*
X145489837Y-110175863D01*
X145372848Y-110164280D01*
X145262386Y-110129762D01*
X145018449Y-110029012D01*
X145018449Y-110030539D01*
X144618806Y-110723272D01*
X144270608Y-110723272D01*
X144712267Y-109956960D01*
X145057222Y-109956960D01*
X145291695Y-110047330D01*
X145392071Y-110076042D01*
X145500828Y-110085799D01*
X145720036Y-110085799D01*
X145773770Y-110085799D01*
X145825976Y-110085799D01*
X146018094Y-110099089D01*
X146180434Y-110136479D01*
X146325412Y-110201752D01*
X146507414Y-110319050D01*
X146604806Y-110378279D01*
X146641748Y-110400261D01*
X146671667Y-110418885D01*
X146787988Y-110499790D01*
X146885685Y-110589549D01*
X147193126Y-110410947D01*
X146248517Y-108771161D01*
X146246990Y-108769635D01*
X146163032Y-108673464D01*
X146161200Y-108673464D01*
X146142271Y-108661557D01*
X146070075Y-108630520D01*
X145995115Y-108620341D01*
X145889739Y-108639580D01*
X145798194Y-108697583D01*
X145769190Y-108728419D01*
X145745376Y-108764445D01*
X145743545Y-108764445D01*
X145057222Y-109956960D01*
X144712267Y-109956960D01*
X145531359Y-108535772D01*
X145577765Y-108470743D01*
X145630582Y-108412430D01*
X145799872Y-108304522D01*
X145996336Y-108268632D01*
X146137911Y-108287086D01*
G37*
G36*
X142763782Y-113342166D02*
G01*
X142763782Y-113671284D01*
X142763782Y-114000401D01*
X142763782Y-114150000D01*
X142169356Y-114150000D01*
X140859603Y-114150000D01*
X139548935Y-114150000D01*
X138953593Y-114150000D01*
X138953593Y-114000401D01*
X138953593Y-113671284D01*
X138953593Y-113342166D01*
X138953593Y-113192568D01*
X139548935Y-113192568D01*
X140859603Y-113192568D01*
X142169356Y-113192568D01*
X142763782Y-113192568D01*
X142763782Y-113342166D01*
G37*
G36*
X140145298Y-111489098D02*
G01*
X140188134Y-111532140D01*
X140204117Y-111609874D01*
X140188134Y-111687608D01*
X140145298Y-111730650D01*
X140068257Y-111746650D01*
X139990003Y-111730560D01*
X139946672Y-111687435D01*
X139930565Y-111609874D01*
X139932277Y-111601631D01*
X140049328Y-111601631D01*
X140071615Y-111623613D01*
X140092070Y-111601631D01*
X140071615Y-111580870D01*
X140049328Y-111601631D01*
X139932277Y-111601631D01*
X139946672Y-111532313D01*
X139990003Y-111489188D01*
X140068257Y-111473098D01*
X140145298Y-111489098D01*
G37*
G36*
X139526953Y-108649956D02*
G01*
X139526953Y-108590422D01*
X139508635Y-108574851D01*
X139488790Y-108562639D01*
X139467114Y-108540047D01*
X139447575Y-108513790D01*
X139435973Y-108484176D01*
X139427730Y-108454256D01*
X139424794Y-108422505D01*
X139543745Y-108422505D01*
X139558949Y-108472339D01*
X139602363Y-108488145D01*
X139645778Y-108472339D01*
X139658095Y-108431969D01*
X139787988Y-108431969D01*
X139787988Y-108464026D01*
X141337404Y-108464026D01*
X141630495Y-108464026D01*
X141772461Y-108464026D01*
X141776125Y-108441128D01*
X141740099Y-108406324D01*
X141695219Y-108373351D01*
X141630495Y-108336714D01*
X141630495Y-108464026D01*
X141337404Y-108464026D01*
X141337404Y-108339767D01*
X141462578Y-108339767D01*
X141508679Y-108339767D01*
X141510205Y-108180704D01*
X141462578Y-108180704D01*
X141462578Y-108339767D01*
X141337404Y-108339767D01*
X141337404Y-108251229D01*
X141243370Y-108233522D01*
X141140788Y-108221004D01*
X141024773Y-108210624D01*
X141024773Y-108307711D01*
X140360432Y-108307711D01*
X140360432Y-108224668D01*
X140219077Y-108246345D01*
X140093292Y-108276264D01*
X139988267Y-108308321D01*
X139905225Y-108345263D01*
X139836226Y-108388005D01*
X139787988Y-108431969D01*
X139658095Y-108431969D01*
X139660982Y-108422505D01*
X139645755Y-108372414D01*
X139602363Y-108356559D01*
X139558972Y-108372414D01*
X139543745Y-108422505D01*
X139424794Y-108422505D01*
X139424371Y-108417925D01*
X139429562Y-108374877D01*
X139441468Y-108347095D01*
X139471999Y-108300383D01*
X139506193Y-108267716D01*
X139551988Y-108246955D01*
X139599921Y-108238407D01*
X139649075Y-108245123D01*
X139689680Y-108264357D01*
X139725706Y-108284813D01*
X139742803Y-108305573D01*
X139773028Y-108276264D01*
X139825846Y-108243292D01*
X139890875Y-108210624D01*
X139968721Y-108180704D01*
X140476142Y-108180704D01*
X140887997Y-108180704D01*
X140887997Y-108112316D01*
X140476142Y-108112316D01*
X140476142Y-108180704D01*
X139968721Y-108180704D01*
X139980635Y-108176125D01*
X140077721Y-108146816D01*
X140175113Y-108126055D01*
X140276779Y-108108653D01*
X140360432Y-108096746D01*
X140360432Y-107995080D01*
X141024773Y-107995080D01*
X141024773Y-108083618D01*
X141076369Y-108085144D01*
X141159717Y-108093387D01*
X141249781Y-108105294D01*
X141337404Y-108120560D01*
X141337404Y-108063468D01*
X141630495Y-108063468D01*
X141630495Y-108200244D01*
X141664689Y-108216120D01*
X141711095Y-108237491D01*
X141760554Y-108271074D01*
X141805129Y-108300994D01*
X141842986Y-108336714D01*
X141868632Y-108361444D01*
X141889087Y-108386174D01*
X141900994Y-108414262D01*
X141895804Y-108464026D01*
X142063721Y-108464026D01*
X142063721Y-108678960D01*
X141877180Y-108678960D01*
X141847871Y-108950375D01*
X142931393Y-107825942D01*
X143018405Y-107909595D01*
X141834132Y-109139663D01*
X141801465Y-109470307D01*
X141726360Y-110270812D01*
X141666521Y-110850279D01*
X142934752Y-112145682D01*
X142847740Y-112229640D01*
X141657972Y-111012395D01*
X141587447Y-111766189D01*
X141552337Y-111766189D01*
X141552337Y-112040657D01*
X141278785Y-112040657D01*
X141278785Y-111922199D01*
X141401212Y-111922199D01*
X141428384Y-111922199D01*
X141428384Y-111753061D01*
X141401212Y-111753061D01*
X141401212Y-111922199D01*
X141278785Y-111922199D01*
X141278785Y-111766189D01*
X140467899Y-111766189D01*
X140438590Y-111821449D01*
X140401343Y-111873656D01*
X140341503Y-111933801D01*
X140263346Y-111982650D01*
X140176029Y-112010737D01*
X140094513Y-112020202D01*
X140002922Y-112020202D01*
X139940029Y-112003715D01*
X139869199Y-111975628D01*
X139808443Y-111937465D01*
X139758984Y-111891364D01*
X139710136Y-111823586D01*
X139674720Y-111747566D01*
X139656097Y-111676430D01*
X139649380Y-111620254D01*
X139650753Y-111599494D01*
X139861871Y-111599494D01*
X139886361Y-111715826D01*
X139952577Y-111780876D01*
X140072836Y-111805268D01*
X140191880Y-111780965D01*
X140257603Y-111715996D01*
X140281969Y-111599494D01*
X140257664Y-111483798D01*
X140191997Y-111419159D01*
X140072836Y-111394940D01*
X139952458Y-111419247D01*
X139886300Y-111483967D01*
X139861871Y-111599494D01*
X139650753Y-111599494D01*
X139654265Y-111546371D01*
X139666172Y-111487142D01*
X139684490Y-111433103D01*
X139716242Y-111373264D01*
X139751352Y-111322583D01*
X139799590Y-111277093D01*
X139849965Y-111240457D01*
X139898813Y-111215727D01*
X139890265Y-111151003D01*
X138849180Y-112228114D01*
X138762168Y-112142629D01*
X139837738Y-111031324D01*
X140006585Y-111031324D01*
X140020324Y-111180006D01*
X140080469Y-111180006D01*
X140143972Y-111180006D01*
X140218466Y-111201072D01*
X140291128Y-111239541D01*
X140348831Y-111280146D01*
X140399511Y-111330826D01*
X140445307Y-111399520D01*
X140480722Y-111485615D01*
X140500872Y-111582091D01*
X140495987Y-111648953D01*
X141477233Y-111648953D01*
X141547147Y-110899738D01*
X140835790Y-110168230D01*
X140006585Y-111031324D01*
X139837738Y-111031324D01*
X139883243Y-110984307D01*
X139792568Y-109977721D01*
X139731407Y-109248046D01*
X139853323Y-109248046D01*
X139992236Y-110870734D01*
X140745725Y-110083051D01*
X140912421Y-110083051D01*
X141562412Y-110740980D01*
X141701020Y-109272775D01*
X140912421Y-110083051D01*
X140745725Y-110083051D01*
X140255408Y-109577163D01*
X140165038Y-109577163D01*
X140165038Y-109476413D01*
X140148751Y-109459926D01*
X140286854Y-109459926D01*
X140913948Y-109459926D01*
X140913948Y-109420542D01*
X140286854Y-109420542D01*
X140286854Y-109459926D01*
X140148751Y-109459926D01*
X139866756Y-109174467D01*
X139866756Y-109248046D01*
X139853323Y-109248046D01*
X139731407Y-109248046D01*
X139731202Y-109245603D01*
X139403000Y-109245603D01*
X139403000Y-109128367D01*
X139520237Y-109128367D01*
X139749520Y-109128367D01*
X139749520Y-108899389D01*
X139520237Y-108899389D01*
X139520237Y-109128367D01*
X139403000Y-109128367D01*
X139403000Y-108782458D01*
X139488790Y-108782458D01*
X139387781Y-108678960D01*
X139804780Y-108678960D01*
X139814855Y-108782458D01*
X139866756Y-108782458D01*
X139866756Y-109004413D01*
X140165038Y-109298421D01*
X141044312Y-109298421D01*
X141044312Y-109577163D01*
X140436453Y-109577163D01*
X140826936Y-109995734D01*
X141717506Y-109085013D01*
X141755364Y-108678960D01*
X139804780Y-108678960D01*
X139387781Y-108678960D01*
X138633941Y-107906542D01*
X138720952Y-107822583D01*
X139526953Y-108649956D01*
G37*
X167410839Y-100822200D02*
X167267982Y-100869819D01*
X167267982Y-100869819D02*
X167029887Y-100869819D01*
X167029887Y-100869819D02*
X166934649Y-100822200D01*
X166934649Y-100822200D02*
X166887030Y-100774580D01*
X166887030Y-100774580D02*
X166839411Y-100679342D01*
X166839411Y-100679342D02*
X166839411Y-100584104D01*
X166839411Y-100584104D02*
X166887030Y-100488866D01*
X166887030Y-100488866D02*
X166934649Y-100441247D01*
X166934649Y-100441247D02*
X167029887Y-100393628D01*
X167029887Y-100393628D02*
X167220363Y-100346009D01*
X167220363Y-100346009D02*
X167315601Y-100298390D01*
X167315601Y-100298390D02*
X167363220Y-100250771D01*
X167363220Y-100250771D02*
X167410839Y-100155533D01*
X167410839Y-100155533D02*
X167410839Y-100060295D01*
X167410839Y-100060295D02*
X167363220Y-99965057D01*
X167363220Y-99965057D02*
X167315601Y-99917438D01*
X167315601Y-99917438D02*
X167220363Y-99869819D01*
X167220363Y-99869819D02*
X166982268Y-99869819D01*
X166982268Y-99869819D02*
X166839411Y-99917438D01*
X165839411Y-100774580D02*
X165887030Y-100822200D01*
X165887030Y-100822200D02*
X166029887Y-100869819D01*
X166029887Y-100869819D02*
X166125125Y-100869819D01*
X166125125Y-100869819D02*
X166267982Y-100822200D01*
X166267982Y-100822200D02*
X166363220Y-100726961D01*
X166363220Y-100726961D02*
X166410839Y-100631723D01*
X166410839Y-100631723D02*
X166458458Y-100441247D01*
X166458458Y-100441247D02*
X166458458Y-100298390D01*
X166458458Y-100298390D02*
X166410839Y-100107914D01*
X166410839Y-100107914D02*
X166363220Y-100012676D01*
X166363220Y-100012676D02*
X166267982Y-99917438D01*
X166267982Y-99917438D02*
X166125125Y-99869819D01*
X166125125Y-99869819D02*
X166029887Y-99869819D01*
X166029887Y-99869819D02*
X165887030Y-99917438D01*
X165887030Y-99917438D02*
X165839411Y-99965057D01*
X165410839Y-100869819D02*
X165410839Y-99869819D01*
X164839411Y-100869819D02*
X165267982Y-100298390D01*
X164839411Y-99869819D02*
X165410839Y-100441247D01*
X167406077Y-98569819D02*
X166834649Y-98569819D01*
X167120363Y-99569819D02*
X167120363Y-98569819D01*
X166501315Y-99569819D02*
X166501315Y-98569819D01*
X166501315Y-98569819D02*
X166120363Y-98569819D01*
X166120363Y-98569819D02*
X166025125Y-98617438D01*
X166025125Y-98617438D02*
X165977506Y-98665057D01*
X165977506Y-98665057D02*
X165929887Y-98760295D01*
X165929887Y-98760295D02*
X165929887Y-98903152D01*
X165929887Y-98903152D02*
X165977506Y-98998390D01*
X165977506Y-98998390D02*
X166025125Y-99046009D01*
X166025125Y-99046009D02*
X166120363Y-99093628D01*
X166120363Y-99093628D02*
X166501315Y-99093628D01*
X164977506Y-99569819D02*
X165548934Y-99569819D01*
X165263220Y-99569819D02*
X165263220Y-98569819D01*
X165263220Y-98569819D02*
X165358458Y-98712676D01*
X165358458Y-98712676D02*
X165453696Y-98807914D01*
X165453696Y-98807914D02*
X165548934Y-98855533D01*
X164358458Y-98569819D02*
X164263220Y-98569819D01*
X164263220Y-98569819D02*
X164167982Y-98617438D01*
X164167982Y-98617438D02*
X164120363Y-98665057D01*
X164120363Y-98665057D02*
X164072744Y-98760295D01*
X164072744Y-98760295D02*
X164025125Y-98950771D01*
X164025125Y-98950771D02*
X164025125Y-99188866D01*
X164025125Y-99188866D02*
X164072744Y-99379342D01*
X164072744Y-99379342D02*
X164120363Y-99474580D01*
X164120363Y-99474580D02*
X164167982Y-99522200D01*
X164167982Y-99522200D02*
X164263220Y-99569819D01*
X164263220Y-99569819D02*
X164358458Y-99569819D01*
X164358458Y-99569819D02*
X164453696Y-99522200D01*
X164453696Y-99522200D02*
X164501315Y-99474580D01*
X164501315Y-99474580D02*
X164548934Y-99379342D01*
X164548934Y-99379342D02*
X164596553Y-99188866D01*
X164596553Y-99188866D02*
X164596553Y-98950771D01*
X164596553Y-98950771D02*
X164548934Y-98760295D01*
X164548934Y-98760295D02*
X164501315Y-98665057D01*
X164501315Y-98665057D02*
X164453696Y-98617438D01*
X164453696Y-98617438D02*
X164358458Y-98569819D01*
X148863220Y-107569819D02*
X148863220Y-106569819D01*
X148863220Y-106569819D02*
X148291792Y-107569819D01*
X148291792Y-107569819D02*
X148291792Y-106569819D01*
X147244173Y-107569819D02*
X147577506Y-107093628D01*
X147815601Y-107569819D02*
X147815601Y-106569819D01*
X147815601Y-106569819D02*
X147434649Y-106569819D01*
X147434649Y-106569819D02*
X147339411Y-106617438D01*
X147339411Y-106617438D02*
X147291792Y-106665057D01*
X147291792Y-106665057D02*
X147244173Y-106760295D01*
X147244173Y-106760295D02*
X147244173Y-106903152D01*
X147244173Y-106903152D02*
X147291792Y-106998390D01*
X147291792Y-106998390D02*
X147339411Y-107046009D01*
X147339411Y-107046009D02*
X147434649Y-107093628D01*
X147434649Y-107093628D02*
X147815601Y-107093628D01*
X146863220Y-107522200D02*
X146720363Y-107569819D01*
X146720363Y-107569819D02*
X146482268Y-107569819D01*
X146482268Y-107569819D02*
X146387030Y-107522200D01*
X146387030Y-107522200D02*
X146339411Y-107474580D01*
X146339411Y-107474580D02*
X146291792Y-107379342D01*
X146291792Y-107379342D02*
X146291792Y-107284104D01*
X146291792Y-107284104D02*
X146339411Y-107188866D01*
X146339411Y-107188866D02*
X146387030Y-107141247D01*
X146387030Y-107141247D02*
X146482268Y-107093628D01*
X146482268Y-107093628D02*
X146672744Y-107046009D01*
X146672744Y-107046009D02*
X146767982Y-106998390D01*
X146767982Y-106998390D02*
X146815601Y-106950771D01*
X146815601Y-106950771D02*
X146863220Y-106855533D01*
X146863220Y-106855533D02*
X146863220Y-106760295D01*
X146863220Y-106760295D02*
X146815601Y-106665057D01*
X146815601Y-106665057D02*
X146767982Y-106617438D01*
X146767982Y-106617438D02*
X146672744Y-106569819D01*
X146672744Y-106569819D02*
X146434649Y-106569819D01*
X146434649Y-106569819D02*
X146291792Y-106617438D01*
X146006077Y-106569819D02*
X145434649Y-106569819D01*
X145720363Y-107569819D02*
X145720363Y-106569819D01*
X149006077Y-105269819D02*
X148434649Y-105269819D01*
X148720363Y-106269819D02*
X148720363Y-105269819D01*
X148101315Y-106269819D02*
X148101315Y-105269819D01*
X148101315Y-105269819D02*
X147720363Y-105269819D01*
X147720363Y-105269819D02*
X147625125Y-105317438D01*
X147625125Y-105317438D02*
X147577506Y-105365057D01*
X147577506Y-105365057D02*
X147529887Y-105460295D01*
X147529887Y-105460295D02*
X147529887Y-105603152D01*
X147529887Y-105603152D02*
X147577506Y-105698390D01*
X147577506Y-105698390D02*
X147625125Y-105746009D01*
X147625125Y-105746009D02*
X147720363Y-105793628D01*
X147720363Y-105793628D02*
X148101315Y-105793628D01*
X146577506Y-106269819D02*
X147148934Y-106269819D01*
X146863220Y-106269819D02*
X146863220Y-105269819D01*
X146863220Y-105269819D02*
X146958458Y-105412676D01*
X146958458Y-105412676D02*
X147053696Y-105507914D01*
X147053696Y-105507914D02*
X147148934Y-105555533D01*
X146244172Y-105269819D02*
X145625125Y-105269819D01*
X145625125Y-105269819D02*
X145958458Y-105650771D01*
X145958458Y-105650771D02*
X145815601Y-105650771D01*
X145815601Y-105650771D02*
X145720363Y-105698390D01*
X145720363Y-105698390D02*
X145672744Y-105746009D01*
X145672744Y-105746009D02*
X145625125Y-105841247D01*
X145625125Y-105841247D02*
X145625125Y-106079342D01*
X145625125Y-106079342D02*
X145672744Y-106174580D01*
X145672744Y-106174580D02*
X145720363Y-106222200D01*
X145720363Y-106222200D02*
X145815601Y-106269819D01*
X145815601Y-106269819D02*
X146101315Y-106269819D01*
X146101315Y-106269819D02*
X146196553Y-106222200D01*
X146196553Y-106222200D02*
X146244172Y-106174580D01*
X146246077Y-82749819D02*
X145674649Y-82749819D01*
X145960363Y-83749819D02*
X145960363Y-82749819D01*
X145341315Y-83749819D02*
X145341315Y-82749819D01*
X145341315Y-82749819D02*
X144960363Y-82749819D01*
X144960363Y-82749819D02*
X144865125Y-82797438D01*
X144865125Y-82797438D02*
X144817506Y-82845057D01*
X144817506Y-82845057D02*
X144769887Y-82940295D01*
X144769887Y-82940295D02*
X144769887Y-83083152D01*
X144769887Y-83083152D02*
X144817506Y-83178390D01*
X144817506Y-83178390D02*
X144865125Y-83226009D01*
X144865125Y-83226009D02*
X144960363Y-83273628D01*
X144960363Y-83273628D02*
X145341315Y-83273628D01*
X144388934Y-82845057D02*
X144341315Y-82797438D01*
X144341315Y-82797438D02*
X144246077Y-82749819D01*
X144246077Y-82749819D02*
X144007982Y-82749819D01*
X144007982Y-82749819D02*
X143912744Y-82797438D01*
X143912744Y-82797438D02*
X143865125Y-82845057D01*
X143865125Y-82845057D02*
X143817506Y-82940295D01*
X143817506Y-82940295D02*
X143817506Y-83035533D01*
X143817506Y-83035533D02*
X143865125Y-83178390D01*
X143865125Y-83178390D02*
X144436553Y-83749819D01*
X144436553Y-83749819D02*
X143817506Y-83749819D01*
X146110839Y-85022200D02*
X145967982Y-85069819D01*
X145967982Y-85069819D02*
X145729887Y-85069819D01*
X145729887Y-85069819D02*
X145634649Y-85022200D01*
X145634649Y-85022200D02*
X145587030Y-84974580D01*
X145587030Y-84974580D02*
X145539411Y-84879342D01*
X145539411Y-84879342D02*
X145539411Y-84784104D01*
X145539411Y-84784104D02*
X145587030Y-84688866D01*
X145587030Y-84688866D02*
X145634649Y-84641247D01*
X145634649Y-84641247D02*
X145729887Y-84593628D01*
X145729887Y-84593628D02*
X145920363Y-84546009D01*
X145920363Y-84546009D02*
X146015601Y-84498390D01*
X146015601Y-84498390D02*
X146063220Y-84450771D01*
X146063220Y-84450771D02*
X146110839Y-84355533D01*
X146110839Y-84355533D02*
X146110839Y-84260295D01*
X146110839Y-84260295D02*
X146063220Y-84165057D01*
X146063220Y-84165057D02*
X146015601Y-84117438D01*
X146015601Y-84117438D02*
X145920363Y-84069819D01*
X145920363Y-84069819D02*
X145682268Y-84069819D01*
X145682268Y-84069819D02*
X145539411Y-84117438D01*
X144539411Y-84974580D02*
X144587030Y-85022200D01*
X144587030Y-85022200D02*
X144729887Y-85069819D01*
X144729887Y-85069819D02*
X144825125Y-85069819D01*
X144825125Y-85069819D02*
X144967982Y-85022200D01*
X144967982Y-85022200D02*
X145063220Y-84926961D01*
X145063220Y-84926961D02*
X145110839Y-84831723D01*
X145110839Y-84831723D02*
X145158458Y-84641247D01*
X145158458Y-84641247D02*
X145158458Y-84498390D01*
X145158458Y-84498390D02*
X145110839Y-84307914D01*
X145110839Y-84307914D02*
X145063220Y-84212676D01*
X145063220Y-84212676D02*
X144967982Y-84117438D01*
X144967982Y-84117438D02*
X144825125Y-84069819D01*
X144825125Y-84069819D02*
X144729887Y-84069819D01*
X144729887Y-84069819D02*
X144587030Y-84117438D01*
X144587030Y-84117438D02*
X144539411Y-84165057D01*
X143634649Y-85069819D02*
X144110839Y-85069819D01*
X144110839Y-85069819D02*
X144110839Y-84069819D01*
X159730180Y-108506077D02*
X159730180Y-107934649D01*
X158730180Y-108220363D02*
X159730180Y-108220363D01*
X158730180Y-107601315D02*
X159730180Y-107601315D01*
X159730180Y-107601315D02*
X159730180Y-107220363D01*
X159730180Y-107220363D02*
X159682561Y-107125125D01*
X159682561Y-107125125D02*
X159634942Y-107077506D01*
X159634942Y-107077506D02*
X159539704Y-107029887D01*
X159539704Y-107029887D02*
X159396847Y-107029887D01*
X159396847Y-107029887D02*
X159301609Y-107077506D01*
X159301609Y-107077506D02*
X159253990Y-107125125D01*
X159253990Y-107125125D02*
X159206371Y-107220363D01*
X159206371Y-107220363D02*
X159206371Y-107601315D01*
X159301609Y-106458458D02*
X159349228Y-106553696D01*
X159349228Y-106553696D02*
X159396847Y-106601315D01*
X159396847Y-106601315D02*
X159492085Y-106648934D01*
X159492085Y-106648934D02*
X159539704Y-106648934D01*
X159539704Y-106648934D02*
X159634942Y-106601315D01*
X159634942Y-106601315D02*
X159682561Y-106553696D01*
X159682561Y-106553696D02*
X159730180Y-106458458D01*
X159730180Y-106458458D02*
X159730180Y-106267982D01*
X159730180Y-106267982D02*
X159682561Y-106172744D01*
X159682561Y-106172744D02*
X159634942Y-106125125D01*
X159634942Y-106125125D02*
X159539704Y-106077506D01*
X159539704Y-106077506D02*
X159492085Y-106077506D01*
X159492085Y-106077506D02*
X159396847Y-106125125D01*
X159396847Y-106125125D02*
X159349228Y-106172744D01*
X159349228Y-106172744D02*
X159301609Y-106267982D01*
X159301609Y-106267982D02*
X159301609Y-106458458D01*
X159301609Y-106458458D02*
X159253990Y-106553696D01*
X159253990Y-106553696D02*
X159206371Y-106601315D01*
X159206371Y-106601315D02*
X159111133Y-106648934D01*
X159111133Y-106648934D02*
X158920657Y-106648934D01*
X158920657Y-106648934D02*
X158825419Y-106601315D01*
X158825419Y-106601315D02*
X158777800Y-106553696D01*
X158777800Y-106553696D02*
X158730180Y-106458458D01*
X158730180Y-106458458D02*
X158730180Y-106267982D01*
X158730180Y-106267982D02*
X158777800Y-106172744D01*
X158777800Y-106172744D02*
X158825419Y-106125125D01*
X158825419Y-106125125D02*
X158920657Y-106077506D01*
X158920657Y-106077506D02*
X159111133Y-106077506D01*
X159111133Y-106077506D02*
X159206371Y-106125125D01*
X159206371Y-106125125D02*
X159253990Y-106172744D01*
X159253990Y-106172744D02*
X159301609Y-106267982D01*
X157377800Y-108410839D02*
X157330180Y-108267982D01*
X157330180Y-108267982D02*
X157330180Y-108029887D01*
X157330180Y-108029887D02*
X157377800Y-107934649D01*
X157377800Y-107934649D02*
X157425419Y-107887030D01*
X157425419Y-107887030D02*
X157520657Y-107839411D01*
X157520657Y-107839411D02*
X157615895Y-107839411D01*
X157615895Y-107839411D02*
X157711133Y-107887030D01*
X157711133Y-107887030D02*
X157758752Y-107934649D01*
X157758752Y-107934649D02*
X157806371Y-108029887D01*
X157806371Y-108029887D02*
X157853990Y-108220363D01*
X157853990Y-108220363D02*
X157901609Y-108315601D01*
X157901609Y-108315601D02*
X157949228Y-108363220D01*
X157949228Y-108363220D02*
X158044466Y-108410839D01*
X158044466Y-108410839D02*
X158139704Y-108410839D01*
X158139704Y-108410839D02*
X158234942Y-108363220D01*
X158234942Y-108363220D02*
X158282561Y-108315601D01*
X158282561Y-108315601D02*
X158330180Y-108220363D01*
X158330180Y-108220363D02*
X158330180Y-107982268D01*
X158330180Y-107982268D02*
X158282561Y-107839411D01*
X158330180Y-107506077D02*
X157330180Y-107267982D01*
X157330180Y-107267982D02*
X158044466Y-107077506D01*
X158044466Y-107077506D02*
X157330180Y-106887030D01*
X157330180Y-106887030D02*
X158330180Y-106648935D01*
X157330180Y-106267982D02*
X158330180Y-106267982D01*
X158330180Y-106267982D02*
X158330180Y-106029887D01*
X158330180Y-106029887D02*
X158282561Y-105887030D01*
X158282561Y-105887030D02*
X158187323Y-105791792D01*
X158187323Y-105791792D02*
X158092085Y-105744173D01*
X158092085Y-105744173D02*
X157901609Y-105696554D01*
X157901609Y-105696554D02*
X157758752Y-105696554D01*
X157758752Y-105696554D02*
X157568276Y-105744173D01*
X157568276Y-105744173D02*
X157473038Y-105791792D01*
X157473038Y-105791792D02*
X157377800Y-105887030D01*
X157377800Y-105887030D02*
X157330180Y-106029887D01*
X157330180Y-106029887D02*
X157330180Y-106267982D01*
X157425419Y-104696554D02*
X157377800Y-104744173D01*
X157377800Y-104744173D02*
X157330180Y-104887030D01*
X157330180Y-104887030D02*
X157330180Y-104982268D01*
X157330180Y-104982268D02*
X157377800Y-105125125D01*
X157377800Y-105125125D02*
X157473038Y-105220363D01*
X157473038Y-105220363D02*
X157568276Y-105267982D01*
X157568276Y-105267982D02*
X157758752Y-105315601D01*
X157758752Y-105315601D02*
X157901609Y-105315601D01*
X157901609Y-105315601D02*
X158092085Y-105267982D01*
X158092085Y-105267982D02*
X158187323Y-105220363D01*
X158187323Y-105220363D02*
X158282561Y-105125125D01*
X158282561Y-105125125D02*
X158330180Y-104982268D01*
X158330180Y-104982268D02*
X158330180Y-104887030D01*
X158330180Y-104887030D02*
X158282561Y-104744173D01*
X158282561Y-104744173D02*
X158234942Y-104696554D01*
X157330180Y-103791792D02*
X157330180Y-104267982D01*
X157330180Y-104267982D02*
X158330180Y-104267982D01*
X157330180Y-103458458D02*
X158330180Y-103458458D01*
X157330180Y-102887030D02*
X157901609Y-103315601D01*
X158330180Y-102887030D02*
X157758752Y-103458458D01*
X154139411Y-112617438D02*
X154234649Y-112569819D01*
X154234649Y-112569819D02*
X154377506Y-112569819D01*
X154377506Y-112569819D02*
X154520363Y-112617438D01*
X154520363Y-112617438D02*
X154615601Y-112712676D01*
X154615601Y-112712676D02*
X154663220Y-112807914D01*
X154663220Y-112807914D02*
X154710839Y-112998390D01*
X154710839Y-112998390D02*
X154710839Y-113141247D01*
X154710839Y-113141247D02*
X154663220Y-113331723D01*
X154663220Y-113331723D02*
X154615601Y-113426961D01*
X154615601Y-113426961D02*
X154520363Y-113522200D01*
X154520363Y-113522200D02*
X154377506Y-113569819D01*
X154377506Y-113569819D02*
X154282268Y-113569819D01*
X154282268Y-113569819D02*
X154139411Y-113522200D01*
X154139411Y-113522200D02*
X154091792Y-113474580D01*
X154091792Y-113474580D02*
X154091792Y-113141247D01*
X154091792Y-113141247D02*
X154282268Y-113141247D01*
X153663220Y-113569819D02*
X153663220Y-112569819D01*
X153663220Y-112569819D02*
X153091792Y-113569819D01*
X153091792Y-113569819D02*
X153091792Y-112569819D01*
X152615601Y-113569819D02*
X152615601Y-112569819D01*
X152615601Y-112569819D02*
X152377506Y-112569819D01*
X152377506Y-112569819D02*
X152234649Y-112617438D01*
X152234649Y-112617438D02*
X152139411Y-112712676D01*
X152139411Y-112712676D02*
X152091792Y-112807914D01*
X152091792Y-112807914D02*
X152044173Y-112998390D01*
X152044173Y-112998390D02*
X152044173Y-113141247D01*
X152044173Y-113141247D02*
X152091792Y-113331723D01*
X152091792Y-113331723D02*
X152139411Y-113426961D01*
X152139411Y-113426961D02*
X152234649Y-113522200D01*
X152234649Y-113522200D02*
X152377506Y-113569819D01*
X152377506Y-113569819D02*
X152615601Y-113569819D01*
X154706077Y-111269819D02*
X154134649Y-111269819D01*
X154420363Y-112269819D02*
X154420363Y-111269819D01*
X153801315Y-112269819D02*
X153801315Y-111269819D01*
X153801315Y-111269819D02*
X153420363Y-111269819D01*
X153420363Y-111269819D02*
X153325125Y-111317438D01*
X153325125Y-111317438D02*
X153277506Y-111365057D01*
X153277506Y-111365057D02*
X153229887Y-111460295D01*
X153229887Y-111460295D02*
X153229887Y-111603152D01*
X153229887Y-111603152D02*
X153277506Y-111698390D01*
X153277506Y-111698390D02*
X153325125Y-111746009D01*
X153325125Y-111746009D02*
X153420363Y-111793628D01*
X153420363Y-111793628D02*
X153801315Y-111793628D01*
X152277506Y-112269819D02*
X152848934Y-112269819D01*
X152563220Y-112269819D02*
X152563220Y-111269819D01*
X152563220Y-111269819D02*
X152658458Y-111412676D01*
X152658458Y-111412676D02*
X152753696Y-111507914D01*
X152753696Y-111507914D02*
X152848934Y-111555533D01*
X151801315Y-112269819D02*
X151610839Y-112269819D01*
X151610839Y-112269819D02*
X151515601Y-112222200D01*
X151515601Y-112222200D02*
X151467982Y-112174580D01*
X151467982Y-112174580D02*
X151372744Y-112031723D01*
X151372744Y-112031723D02*
X151325125Y-111841247D01*
X151325125Y-111841247D02*
X151325125Y-111460295D01*
X151325125Y-111460295D02*
X151372744Y-111365057D01*
X151372744Y-111365057D02*
X151420363Y-111317438D01*
X151420363Y-111317438D02*
X151515601Y-111269819D01*
X151515601Y-111269819D02*
X151706077Y-111269819D01*
X151706077Y-111269819D02*
X151801315Y-111317438D01*
X151801315Y-111317438D02*
X151848934Y-111365057D01*
X151848934Y-111365057D02*
X151896553Y-111460295D01*
X151896553Y-111460295D02*
X151896553Y-111698390D01*
X151896553Y-111698390D02*
X151848934Y-111793628D01*
X151848934Y-111793628D02*
X151801315Y-111841247D01*
X151801315Y-111841247D02*
X151706077Y-111888866D01*
X151706077Y-111888866D02*
X151515601Y-111888866D01*
X151515601Y-111888866D02*
X151420363Y-111841247D01*
X151420363Y-111841247D02*
X151372744Y-111793628D01*
X151372744Y-111793628D02*
X151325125Y-111698390D01*
X148706077Y-90569819D02*
X148134649Y-90569819D01*
X148420363Y-91569819D02*
X148420363Y-90569819D01*
X147801315Y-91569819D02*
X147801315Y-90569819D01*
X147801315Y-90569819D02*
X147420363Y-90569819D01*
X147420363Y-90569819D02*
X147325125Y-90617438D01*
X147325125Y-90617438D02*
X147277506Y-90665057D01*
X147277506Y-90665057D02*
X147229887Y-90760295D01*
X147229887Y-90760295D02*
X147229887Y-90903152D01*
X147229887Y-90903152D02*
X147277506Y-90998390D01*
X147277506Y-90998390D02*
X147325125Y-91046009D01*
X147325125Y-91046009D02*
X147420363Y-91093628D01*
X147420363Y-91093628D02*
X147801315Y-91093628D01*
X146372744Y-90903152D02*
X146372744Y-91569819D01*
X146610839Y-90522200D02*
X146848934Y-91236485D01*
X146848934Y-91236485D02*
X146229887Y-91236485D01*
X148472744Y-91869819D02*
X148282268Y-91869819D01*
X148282268Y-91869819D02*
X148187030Y-91917438D01*
X148187030Y-91917438D02*
X148091792Y-92012676D01*
X148091792Y-92012676D02*
X148044173Y-92203152D01*
X148044173Y-92203152D02*
X148044173Y-92536485D01*
X148044173Y-92536485D02*
X148091792Y-92726961D01*
X148091792Y-92726961D02*
X148187030Y-92822200D01*
X148187030Y-92822200D02*
X148282268Y-92869819D01*
X148282268Y-92869819D02*
X148472744Y-92869819D01*
X148472744Y-92869819D02*
X148567982Y-92822200D01*
X148567982Y-92822200D02*
X148663220Y-92726961D01*
X148663220Y-92726961D02*
X148710839Y-92536485D01*
X148710839Y-92536485D02*
X148710839Y-92203152D01*
X148710839Y-92203152D02*
X148663220Y-92012676D01*
X148663220Y-92012676D02*
X148567982Y-91917438D01*
X148567982Y-91917438D02*
X148472744Y-91869819D01*
X147663220Y-92822200D02*
X147520363Y-92869819D01*
X147520363Y-92869819D02*
X147282268Y-92869819D01*
X147282268Y-92869819D02*
X147187030Y-92822200D01*
X147187030Y-92822200D02*
X147139411Y-92774580D01*
X147139411Y-92774580D02*
X147091792Y-92679342D01*
X147091792Y-92679342D02*
X147091792Y-92584104D01*
X147091792Y-92584104D02*
X147139411Y-92488866D01*
X147139411Y-92488866D02*
X147187030Y-92441247D01*
X147187030Y-92441247D02*
X147282268Y-92393628D01*
X147282268Y-92393628D02*
X147472744Y-92346009D01*
X147472744Y-92346009D02*
X147567982Y-92298390D01*
X147567982Y-92298390D02*
X147615601Y-92250771D01*
X147615601Y-92250771D02*
X147663220Y-92155533D01*
X147663220Y-92155533D02*
X147663220Y-92060295D01*
X147663220Y-92060295D02*
X147615601Y-91965057D01*
X147615601Y-91965057D02*
X147567982Y-91917438D01*
X147567982Y-91917438D02*
X147472744Y-91869819D01*
X147472744Y-91869819D02*
X147234649Y-91869819D01*
X147234649Y-91869819D02*
X147091792Y-91917438D01*
X146091792Y-92774580D02*
X146139411Y-92822200D01*
X146139411Y-92822200D02*
X146282268Y-92869819D01*
X146282268Y-92869819D02*
X146377506Y-92869819D01*
X146377506Y-92869819D02*
X146520363Y-92822200D01*
X146520363Y-92822200D02*
X146615601Y-92726961D01*
X146615601Y-92726961D02*
X146663220Y-92631723D01*
X146663220Y-92631723D02*
X146710839Y-92441247D01*
X146710839Y-92441247D02*
X146710839Y-92298390D01*
X146710839Y-92298390D02*
X146663220Y-92107914D01*
X146663220Y-92107914D02*
X146615601Y-92012676D01*
X146615601Y-92012676D02*
X146520363Y-91917438D01*
X146520363Y-91917438D02*
X146377506Y-91869819D01*
X146377506Y-91869819D02*
X146282268Y-91869819D01*
X146282268Y-91869819D02*
X146139411Y-91917438D01*
X146139411Y-91917438D02*
X146091792Y-91965057D01*
X145758458Y-91869819D02*
X145139411Y-91869819D01*
X145139411Y-91869819D02*
X145472744Y-92250771D01*
X145472744Y-92250771D02*
X145329887Y-92250771D01*
X145329887Y-92250771D02*
X145234649Y-92298390D01*
X145234649Y-92298390D02*
X145187030Y-92346009D01*
X145187030Y-92346009D02*
X145139411Y-92441247D01*
X145139411Y-92441247D02*
X145139411Y-92679342D01*
X145139411Y-92679342D02*
X145187030Y-92774580D01*
X145187030Y-92774580D02*
X145234649Y-92822200D01*
X145234649Y-92822200D02*
X145329887Y-92869819D01*
X145329887Y-92869819D02*
X145615601Y-92869819D01*
X145615601Y-92869819D02*
X145710839Y-92822200D01*
X145710839Y-92822200D02*
X145758458Y-92774580D01*
X144758458Y-91965057D02*
X144710839Y-91917438D01*
X144710839Y-91917438D02*
X144615601Y-91869819D01*
X144615601Y-91869819D02*
X144377506Y-91869819D01*
X144377506Y-91869819D02*
X144282268Y-91917438D01*
X144282268Y-91917438D02*
X144234649Y-91965057D01*
X144234649Y-91965057D02*
X144187030Y-92060295D01*
X144187030Y-92060295D02*
X144187030Y-92155533D01*
X144187030Y-92155533D02*
X144234649Y-92298390D01*
X144234649Y-92298390D02*
X144806077Y-92869819D01*
X144806077Y-92869819D02*
X144187030Y-92869819D01*
X143996554Y-92965057D02*
X143234649Y-92965057D01*
X142996553Y-92869819D02*
X142996553Y-91869819D01*
X142520363Y-92869819D02*
X142520363Y-91869819D01*
X142520363Y-91869819D02*
X141948935Y-92869819D01*
X141948935Y-92869819D02*
X141948935Y-91869819D01*
X126006077Y-109669819D02*
X125672744Y-110669819D01*
X125672744Y-110669819D02*
X125339411Y-109669819D01*
X124672744Y-110146009D02*
X124529887Y-110193628D01*
X124529887Y-110193628D02*
X124482268Y-110241247D01*
X124482268Y-110241247D02*
X124434649Y-110336485D01*
X124434649Y-110336485D02*
X124434649Y-110479342D01*
X124434649Y-110479342D02*
X124482268Y-110574580D01*
X124482268Y-110574580D02*
X124529887Y-110622200D01*
X124529887Y-110622200D02*
X124625125Y-110669819D01*
X124625125Y-110669819D02*
X125006077Y-110669819D01*
X125006077Y-110669819D02*
X125006077Y-109669819D01*
X125006077Y-109669819D02*
X124672744Y-109669819D01*
X124672744Y-109669819D02*
X124577506Y-109717438D01*
X124577506Y-109717438D02*
X124529887Y-109765057D01*
X124529887Y-109765057D02*
X124482268Y-109860295D01*
X124482268Y-109860295D02*
X124482268Y-109955533D01*
X124482268Y-109955533D02*
X124529887Y-110050771D01*
X124529887Y-110050771D02*
X124577506Y-110098390D01*
X124577506Y-110098390D02*
X124672744Y-110146009D01*
X124672744Y-110146009D02*
X125006077Y-110146009D01*
X124053696Y-110384104D02*
X123577506Y-110384104D01*
X124148934Y-110669819D02*
X123815601Y-109669819D01*
X123815601Y-109669819D02*
X123482268Y-110669819D01*
X123291791Y-109669819D02*
X122720363Y-109669819D01*
X123006077Y-110669819D02*
X123006077Y-109669819D01*
X126006077Y-108369819D02*
X125434649Y-108369819D01*
X125720363Y-109369819D02*
X125720363Y-108369819D01*
X125101315Y-109369819D02*
X125101315Y-108369819D01*
X125101315Y-108369819D02*
X124720363Y-108369819D01*
X124720363Y-108369819D02*
X124625125Y-108417438D01*
X124625125Y-108417438D02*
X124577506Y-108465057D01*
X124577506Y-108465057D02*
X124529887Y-108560295D01*
X124529887Y-108560295D02*
X124529887Y-108703152D01*
X124529887Y-108703152D02*
X124577506Y-108798390D01*
X124577506Y-108798390D02*
X124625125Y-108846009D01*
X124625125Y-108846009D02*
X124720363Y-108893628D01*
X124720363Y-108893628D02*
X125101315Y-108893628D01*
X123577506Y-109369819D02*
X124148934Y-109369819D01*
X123863220Y-109369819D02*
X123863220Y-108369819D01*
X123863220Y-108369819D02*
X123958458Y-108512676D01*
X123958458Y-108512676D02*
X124053696Y-108607914D01*
X124053696Y-108607914D02*
X124148934Y-108655533D01*
X122720363Y-108369819D02*
X122910839Y-108369819D01*
X122910839Y-108369819D02*
X123006077Y-108417438D01*
X123006077Y-108417438D02*
X123053696Y-108465057D01*
X123053696Y-108465057D02*
X123148934Y-108607914D01*
X123148934Y-108607914D02*
X123196553Y-108798390D01*
X123196553Y-108798390D02*
X123196553Y-109179342D01*
X123196553Y-109179342D02*
X123148934Y-109274580D01*
X123148934Y-109274580D02*
X123101315Y-109322200D01*
X123101315Y-109322200D02*
X123006077Y-109369819D01*
X123006077Y-109369819D02*
X122815601Y-109369819D01*
X122815601Y-109369819D02*
X122720363Y-109322200D01*
X122720363Y-109322200D02*
X122672744Y-109274580D01*
X122672744Y-109274580D02*
X122625125Y-109179342D01*
X122625125Y-109179342D02*
X122625125Y-108941247D01*
X122625125Y-108941247D02*
X122672744Y-108846009D01*
X122672744Y-108846009D02*
X122720363Y-108798390D01*
X122720363Y-108798390D02*
X122815601Y-108750771D01*
X122815601Y-108750771D02*
X123006077Y-108750771D01*
X123006077Y-108750771D02*
X123101315Y-108798390D01*
X123101315Y-108798390D02*
X123148934Y-108846009D01*
X123148934Y-108846009D02*
X123196553Y-108941247D01*
X139839411Y-92017438D02*
X139934649Y-91969819D01*
X139934649Y-91969819D02*
X140077506Y-91969819D01*
X140077506Y-91969819D02*
X140220363Y-92017438D01*
X140220363Y-92017438D02*
X140315601Y-92112676D01*
X140315601Y-92112676D02*
X140363220Y-92207914D01*
X140363220Y-92207914D02*
X140410839Y-92398390D01*
X140410839Y-92398390D02*
X140410839Y-92541247D01*
X140410839Y-92541247D02*
X140363220Y-92731723D01*
X140363220Y-92731723D02*
X140315601Y-92826961D01*
X140315601Y-92826961D02*
X140220363Y-92922200D01*
X140220363Y-92922200D02*
X140077506Y-92969819D01*
X140077506Y-92969819D02*
X139982268Y-92969819D01*
X139982268Y-92969819D02*
X139839411Y-92922200D01*
X139839411Y-92922200D02*
X139791792Y-92874580D01*
X139791792Y-92874580D02*
X139791792Y-92541247D01*
X139791792Y-92541247D02*
X139982268Y-92541247D01*
X139363220Y-92969819D02*
X139363220Y-91969819D01*
X139363220Y-91969819D02*
X138791792Y-92969819D01*
X138791792Y-92969819D02*
X138791792Y-91969819D01*
X138315601Y-92969819D02*
X138315601Y-91969819D01*
X138315601Y-91969819D02*
X138077506Y-91969819D01*
X138077506Y-91969819D02*
X137934649Y-92017438D01*
X137934649Y-92017438D02*
X137839411Y-92112676D01*
X137839411Y-92112676D02*
X137791792Y-92207914D01*
X137791792Y-92207914D02*
X137744173Y-92398390D01*
X137744173Y-92398390D02*
X137744173Y-92541247D01*
X137744173Y-92541247D02*
X137791792Y-92731723D01*
X137791792Y-92731723D02*
X137839411Y-92826961D01*
X137839411Y-92826961D02*
X137934649Y-92922200D01*
X137934649Y-92922200D02*
X138077506Y-92969819D01*
X138077506Y-92969819D02*
X138315601Y-92969819D01*
X140406077Y-90669819D02*
X139834649Y-90669819D01*
X140120363Y-91669819D02*
X140120363Y-90669819D01*
X139501315Y-91669819D02*
X139501315Y-90669819D01*
X139501315Y-90669819D02*
X139120363Y-90669819D01*
X139120363Y-90669819D02*
X139025125Y-90717438D01*
X139025125Y-90717438D02*
X138977506Y-90765057D01*
X138977506Y-90765057D02*
X138929887Y-90860295D01*
X138929887Y-90860295D02*
X138929887Y-91003152D01*
X138929887Y-91003152D02*
X138977506Y-91098390D01*
X138977506Y-91098390D02*
X139025125Y-91146009D01*
X139025125Y-91146009D02*
X139120363Y-91193628D01*
X139120363Y-91193628D02*
X139501315Y-91193628D01*
X138548934Y-90765057D02*
X138501315Y-90717438D01*
X138501315Y-90717438D02*
X138406077Y-90669819D01*
X138406077Y-90669819D02*
X138167982Y-90669819D01*
X138167982Y-90669819D02*
X138072744Y-90717438D01*
X138072744Y-90717438D02*
X138025125Y-90765057D01*
X138025125Y-90765057D02*
X137977506Y-90860295D01*
X137977506Y-90860295D02*
X137977506Y-90955533D01*
X137977506Y-90955533D02*
X138025125Y-91098390D01*
X138025125Y-91098390D02*
X138596553Y-91669819D01*
X138596553Y-91669819D02*
X137977506Y-91669819D01*
X137025125Y-91669819D02*
X137596553Y-91669819D01*
X137310839Y-91669819D02*
X137310839Y-90669819D01*
X137310839Y-90669819D02*
X137406077Y-90812676D01*
X137406077Y-90812676D02*
X137501315Y-90907914D01*
X137501315Y-90907914D02*
X137596553Y-90955533D01*
X156506077Y-87969819D02*
X155934649Y-87969819D01*
X156220363Y-88969819D02*
X156220363Y-87969819D01*
X155601315Y-88969819D02*
X155601315Y-87969819D01*
X155601315Y-87969819D02*
X155220363Y-87969819D01*
X155220363Y-87969819D02*
X155125125Y-88017438D01*
X155125125Y-88017438D02*
X155077506Y-88065057D01*
X155077506Y-88065057D02*
X155029887Y-88160295D01*
X155029887Y-88160295D02*
X155029887Y-88303152D01*
X155029887Y-88303152D02*
X155077506Y-88398390D01*
X155077506Y-88398390D02*
X155125125Y-88446009D01*
X155125125Y-88446009D02*
X155220363Y-88493628D01*
X155220363Y-88493628D02*
X155601315Y-88493628D01*
X154696553Y-87969819D02*
X154077506Y-87969819D01*
X154077506Y-87969819D02*
X154410839Y-88350771D01*
X154410839Y-88350771D02*
X154267982Y-88350771D01*
X154267982Y-88350771D02*
X154172744Y-88398390D01*
X154172744Y-88398390D02*
X154125125Y-88446009D01*
X154125125Y-88446009D02*
X154077506Y-88541247D01*
X154077506Y-88541247D02*
X154077506Y-88779342D01*
X154077506Y-88779342D02*
X154125125Y-88874580D01*
X154125125Y-88874580D02*
X154172744Y-88922200D01*
X154172744Y-88922200D02*
X154267982Y-88969819D01*
X154267982Y-88969819D02*
X154553696Y-88969819D01*
X154553696Y-88969819D02*
X154648934Y-88922200D01*
X154648934Y-88922200D02*
X154696553Y-88874580D01*
X156363220Y-90369819D02*
X156363220Y-89369819D01*
X155887030Y-90369819D02*
X155887030Y-89369819D01*
X155887030Y-89369819D02*
X155315602Y-90369819D01*
X155315602Y-90369819D02*
X155315602Y-89369819D01*
X154982268Y-89369819D02*
X154410840Y-89369819D01*
X154696554Y-90369819D02*
X154696554Y-89369819D01*
X141906077Y-100069819D02*
X141334649Y-100069819D01*
X141620363Y-101069819D02*
X141620363Y-100069819D01*
X141096553Y-101069819D02*
X140572744Y-100403152D01*
X141096553Y-100403152D02*
X140572744Y-101069819D01*
X140191791Y-101069819D02*
X140191791Y-100069819D01*
X140191791Y-100069819D02*
X139953696Y-100069819D01*
X139953696Y-100069819D02*
X139810839Y-100117438D01*
X139810839Y-100117438D02*
X139715601Y-100212676D01*
X139715601Y-100212676D02*
X139667982Y-100307914D01*
X139667982Y-100307914D02*
X139620363Y-100498390D01*
X139620363Y-100498390D02*
X139620363Y-100641247D01*
X139620363Y-100641247D02*
X139667982Y-100831723D01*
X139667982Y-100831723D02*
X139715601Y-100926961D01*
X139715601Y-100926961D02*
X139810839Y-101022200D01*
X139810839Y-101022200D02*
X139953696Y-101069819D01*
X139953696Y-101069819D02*
X140191791Y-101069819D01*
X141906077Y-98769819D02*
X141334649Y-98769819D01*
X141620363Y-99769819D02*
X141620363Y-98769819D01*
X141001315Y-99769819D02*
X141001315Y-98769819D01*
X141001315Y-98769819D02*
X140620363Y-98769819D01*
X140620363Y-98769819D02*
X140525125Y-98817438D01*
X140525125Y-98817438D02*
X140477506Y-98865057D01*
X140477506Y-98865057D02*
X140429887Y-98960295D01*
X140429887Y-98960295D02*
X140429887Y-99103152D01*
X140429887Y-99103152D02*
X140477506Y-99198390D01*
X140477506Y-99198390D02*
X140525125Y-99246009D01*
X140525125Y-99246009D02*
X140620363Y-99293628D01*
X140620363Y-99293628D02*
X141001315Y-99293628D01*
X139572744Y-98769819D02*
X139763220Y-98769819D01*
X139763220Y-98769819D02*
X139858458Y-98817438D01*
X139858458Y-98817438D02*
X139906077Y-98865057D01*
X139906077Y-98865057D02*
X140001315Y-99007914D01*
X140001315Y-99007914D02*
X140048934Y-99198390D01*
X140048934Y-99198390D02*
X140048934Y-99579342D01*
X140048934Y-99579342D02*
X140001315Y-99674580D01*
X140001315Y-99674580D02*
X139953696Y-99722200D01*
X139953696Y-99722200D02*
X139858458Y-99769819D01*
X139858458Y-99769819D02*
X139667982Y-99769819D01*
X139667982Y-99769819D02*
X139572744Y-99722200D01*
X139572744Y-99722200D02*
X139525125Y-99674580D01*
X139525125Y-99674580D02*
X139477506Y-99579342D01*
X139477506Y-99579342D02*
X139477506Y-99341247D01*
X139477506Y-99341247D02*
X139525125Y-99246009D01*
X139525125Y-99246009D02*
X139572744Y-99198390D01*
X139572744Y-99198390D02*
X139667982Y-99150771D01*
X139667982Y-99150771D02*
X139858458Y-99150771D01*
X139858458Y-99150771D02*
X139953696Y-99198390D01*
X139953696Y-99198390D02*
X140001315Y-99246009D01*
X140001315Y-99246009D02*
X140048934Y-99341247D01*
X141191792Y-98269819D02*
X141525125Y-97793628D01*
X141763220Y-98269819D02*
X141763220Y-97269819D01*
X141763220Y-97269819D02*
X141382268Y-97269819D01*
X141382268Y-97269819D02*
X141287030Y-97317438D01*
X141287030Y-97317438D02*
X141239411Y-97365057D01*
X141239411Y-97365057D02*
X141191792Y-97460295D01*
X141191792Y-97460295D02*
X141191792Y-97603152D01*
X141191792Y-97603152D02*
X141239411Y-97698390D01*
X141239411Y-97698390D02*
X141287030Y-97746009D01*
X141287030Y-97746009D02*
X141382268Y-97793628D01*
X141382268Y-97793628D02*
X141763220Y-97793628D01*
X140858458Y-98269819D02*
X140334649Y-97603152D01*
X140858458Y-97603152D02*
X140334649Y-98269819D01*
X139953696Y-98269819D02*
X139953696Y-97269819D01*
X139953696Y-97269819D02*
X139715601Y-97269819D01*
X139715601Y-97269819D02*
X139572744Y-97317438D01*
X139572744Y-97317438D02*
X139477506Y-97412676D01*
X139477506Y-97412676D02*
X139429887Y-97507914D01*
X139429887Y-97507914D02*
X139382268Y-97698390D01*
X139382268Y-97698390D02*
X139382268Y-97841247D01*
X139382268Y-97841247D02*
X139429887Y-98031723D01*
X139429887Y-98031723D02*
X139477506Y-98126961D01*
X139477506Y-98126961D02*
X139572744Y-98222200D01*
X139572744Y-98222200D02*
X139715601Y-98269819D01*
X139715601Y-98269819D02*
X139953696Y-98269819D01*
X141806077Y-95969819D02*
X141234649Y-95969819D01*
X141520363Y-96969819D02*
X141520363Y-95969819D01*
X140901315Y-96969819D02*
X140901315Y-95969819D01*
X140901315Y-95969819D02*
X140520363Y-95969819D01*
X140520363Y-95969819D02*
X140425125Y-96017438D01*
X140425125Y-96017438D02*
X140377506Y-96065057D01*
X140377506Y-96065057D02*
X140329887Y-96160295D01*
X140329887Y-96160295D02*
X140329887Y-96303152D01*
X140329887Y-96303152D02*
X140377506Y-96398390D01*
X140377506Y-96398390D02*
X140425125Y-96446009D01*
X140425125Y-96446009D02*
X140520363Y-96493628D01*
X140520363Y-96493628D02*
X140901315Y-96493628D01*
X139996553Y-95969819D02*
X139329887Y-95969819D01*
X139329887Y-95969819D02*
X139758458Y-96969819D01*
X178563220Y-84869819D02*
X178563220Y-83869819D01*
X178563220Y-83869819D02*
X178182268Y-83869819D01*
X178182268Y-83869819D02*
X178087030Y-83917438D01*
X178087030Y-83917438D02*
X178039411Y-83965057D01*
X178039411Y-83965057D02*
X177991792Y-84060295D01*
X177991792Y-84060295D02*
X177991792Y-84203152D01*
X177991792Y-84203152D02*
X178039411Y-84298390D01*
X178039411Y-84298390D02*
X178087030Y-84346009D01*
X178087030Y-84346009D02*
X178182268Y-84393628D01*
X178182268Y-84393628D02*
X178563220Y-84393628D01*
X177658458Y-83869819D02*
X177420363Y-84869819D01*
X177420363Y-84869819D02*
X177229887Y-84155533D01*
X177229887Y-84155533D02*
X177039411Y-84869819D01*
X177039411Y-84869819D02*
X176801316Y-83869819D01*
X176420363Y-84869819D02*
X176420363Y-83869819D01*
X176420363Y-83869819D02*
X176087030Y-84584104D01*
X176087030Y-84584104D02*
X175753697Y-83869819D01*
X175753697Y-83869819D02*
X175753697Y-84869819D01*
X178606077Y-82569819D02*
X178034649Y-82569819D01*
X178320363Y-83569819D02*
X178320363Y-82569819D01*
X177701315Y-83569819D02*
X177701315Y-82569819D01*
X177701315Y-82569819D02*
X177320363Y-82569819D01*
X177320363Y-82569819D02*
X177225125Y-82617438D01*
X177225125Y-82617438D02*
X177177506Y-82665057D01*
X177177506Y-82665057D02*
X177129887Y-82760295D01*
X177129887Y-82760295D02*
X177129887Y-82903152D01*
X177129887Y-82903152D02*
X177177506Y-82998390D01*
X177177506Y-82998390D02*
X177225125Y-83046009D01*
X177225125Y-83046009D02*
X177320363Y-83093628D01*
X177320363Y-83093628D02*
X177701315Y-83093628D01*
X176177506Y-83569819D02*
X176748934Y-83569819D01*
X176463220Y-83569819D02*
X176463220Y-82569819D01*
X176463220Y-82569819D02*
X176558458Y-82712676D01*
X176558458Y-82712676D02*
X176653696Y-82807914D01*
X176653696Y-82807914D02*
X176748934Y-82855533D01*
X175320363Y-82903152D02*
X175320363Y-83569819D01*
X175558458Y-82522200D02*
X175796553Y-83236485D01*
X175796553Y-83236485D02*
X175177506Y-83236485D01*
X167663220Y-90269819D02*
X167663220Y-89269819D01*
X167663220Y-89269819D02*
X167329887Y-89984104D01*
X167329887Y-89984104D02*
X166996554Y-89269819D01*
X166996554Y-89269819D02*
X166996554Y-90269819D01*
X166329887Y-89269819D02*
X166139411Y-89269819D01*
X166139411Y-89269819D02*
X166044173Y-89317438D01*
X166044173Y-89317438D02*
X165948935Y-89412676D01*
X165948935Y-89412676D02*
X165901316Y-89603152D01*
X165901316Y-89603152D02*
X165901316Y-89936485D01*
X165901316Y-89936485D02*
X165948935Y-90126961D01*
X165948935Y-90126961D02*
X166044173Y-90222200D01*
X166044173Y-90222200D02*
X166139411Y-90269819D01*
X166139411Y-90269819D02*
X166329887Y-90269819D01*
X166329887Y-90269819D02*
X166425125Y-90222200D01*
X166425125Y-90222200D02*
X166520363Y-90126961D01*
X166520363Y-90126961D02*
X166567982Y-89936485D01*
X166567982Y-89936485D02*
X166567982Y-89603152D01*
X166567982Y-89603152D02*
X166520363Y-89412676D01*
X166520363Y-89412676D02*
X166425125Y-89317438D01*
X166425125Y-89317438D02*
X166329887Y-89269819D01*
X165520363Y-90222200D02*
X165377506Y-90269819D01*
X165377506Y-90269819D02*
X165139411Y-90269819D01*
X165139411Y-90269819D02*
X165044173Y-90222200D01*
X165044173Y-90222200D02*
X164996554Y-90174580D01*
X164996554Y-90174580D02*
X164948935Y-90079342D01*
X164948935Y-90079342D02*
X164948935Y-89984104D01*
X164948935Y-89984104D02*
X164996554Y-89888866D01*
X164996554Y-89888866D02*
X165044173Y-89841247D01*
X165044173Y-89841247D02*
X165139411Y-89793628D01*
X165139411Y-89793628D02*
X165329887Y-89746009D01*
X165329887Y-89746009D02*
X165425125Y-89698390D01*
X165425125Y-89698390D02*
X165472744Y-89650771D01*
X165472744Y-89650771D02*
X165520363Y-89555533D01*
X165520363Y-89555533D02*
X165520363Y-89460295D01*
X165520363Y-89460295D02*
X165472744Y-89365057D01*
X165472744Y-89365057D02*
X165425125Y-89317438D01*
X165425125Y-89317438D02*
X165329887Y-89269819D01*
X165329887Y-89269819D02*
X165091792Y-89269819D01*
X165091792Y-89269819D02*
X164948935Y-89317438D01*
X164520363Y-90269819D02*
X164520363Y-89269819D01*
X167706077Y-87969819D02*
X167134649Y-87969819D01*
X167420363Y-88969819D02*
X167420363Y-87969819D01*
X166801315Y-88969819D02*
X166801315Y-87969819D01*
X166801315Y-87969819D02*
X166420363Y-87969819D01*
X166420363Y-87969819D02*
X166325125Y-88017438D01*
X166325125Y-88017438D02*
X166277506Y-88065057D01*
X166277506Y-88065057D02*
X166229887Y-88160295D01*
X166229887Y-88160295D02*
X166229887Y-88303152D01*
X166229887Y-88303152D02*
X166277506Y-88398390D01*
X166277506Y-88398390D02*
X166325125Y-88446009D01*
X166325125Y-88446009D02*
X166420363Y-88493628D01*
X166420363Y-88493628D02*
X166801315Y-88493628D01*
X165277506Y-88969819D02*
X165848934Y-88969819D01*
X165563220Y-88969819D02*
X165563220Y-87969819D01*
X165563220Y-87969819D02*
X165658458Y-88112676D01*
X165658458Y-88112676D02*
X165753696Y-88207914D01*
X165753696Y-88207914D02*
X165848934Y-88255533D01*
X164896553Y-88065057D02*
X164848934Y-88017438D01*
X164848934Y-88017438D02*
X164753696Y-87969819D01*
X164753696Y-87969819D02*
X164515601Y-87969819D01*
X164515601Y-87969819D02*
X164420363Y-88017438D01*
X164420363Y-88017438D02*
X164372744Y-88065057D01*
X164372744Y-88065057D02*
X164325125Y-88160295D01*
X164325125Y-88160295D02*
X164325125Y-88255533D01*
X164325125Y-88255533D02*
X164372744Y-88398390D01*
X164372744Y-88398390D02*
X164944172Y-88969819D01*
X164944172Y-88969819D02*
X164325125Y-88969819D01*
X129006077Y-113769819D02*
X128434649Y-113769819D01*
X128720363Y-114769819D02*
X128720363Y-113769819D01*
X128101315Y-114769819D02*
X128101315Y-113769819D01*
X128101315Y-113769819D02*
X127720363Y-113769819D01*
X127720363Y-113769819D02*
X127625125Y-113817438D01*
X127625125Y-113817438D02*
X127577506Y-113865057D01*
X127577506Y-113865057D02*
X127529887Y-113960295D01*
X127529887Y-113960295D02*
X127529887Y-114103152D01*
X127529887Y-114103152D02*
X127577506Y-114198390D01*
X127577506Y-114198390D02*
X127625125Y-114246009D01*
X127625125Y-114246009D02*
X127720363Y-114293628D01*
X127720363Y-114293628D02*
X128101315Y-114293628D01*
X126577506Y-114769819D02*
X127148934Y-114769819D01*
X126863220Y-114769819D02*
X126863220Y-113769819D01*
X126863220Y-113769819D02*
X126958458Y-113912676D01*
X126958458Y-113912676D02*
X127053696Y-114007914D01*
X127053696Y-114007914D02*
X127148934Y-114055533D01*
X125672744Y-113769819D02*
X126148934Y-113769819D01*
X126148934Y-113769819D02*
X126196553Y-114246009D01*
X126196553Y-114246009D02*
X126148934Y-114198390D01*
X126148934Y-114198390D02*
X126053696Y-114150771D01*
X126053696Y-114150771D02*
X125815601Y-114150771D01*
X125815601Y-114150771D02*
X125720363Y-114198390D01*
X125720363Y-114198390D02*
X125672744Y-114246009D01*
X125672744Y-114246009D02*
X125625125Y-114341247D01*
X125625125Y-114341247D02*
X125625125Y-114579342D01*
X125625125Y-114579342D02*
X125672744Y-114674580D01*
X125672744Y-114674580D02*
X125720363Y-114722200D01*
X125720363Y-114722200D02*
X125815601Y-114769819D01*
X125815601Y-114769819D02*
X126053696Y-114769819D01*
X126053696Y-114769819D02*
X126148934Y-114722200D01*
X126148934Y-114722200D02*
X126196553Y-114674580D01*
X129006077Y-115069819D02*
X128672744Y-116069819D01*
X128672744Y-116069819D02*
X128339411Y-115069819D01*
X127434649Y-115974580D02*
X127482268Y-116022200D01*
X127482268Y-116022200D02*
X127625125Y-116069819D01*
X127625125Y-116069819D02*
X127720363Y-116069819D01*
X127720363Y-116069819D02*
X127863220Y-116022200D01*
X127863220Y-116022200D02*
X127958458Y-115926961D01*
X127958458Y-115926961D02*
X128006077Y-115831723D01*
X128006077Y-115831723D02*
X128053696Y-115641247D01*
X128053696Y-115641247D02*
X128053696Y-115498390D01*
X128053696Y-115498390D02*
X128006077Y-115307914D01*
X128006077Y-115307914D02*
X127958458Y-115212676D01*
X127958458Y-115212676D02*
X127863220Y-115117438D01*
X127863220Y-115117438D02*
X127720363Y-115069819D01*
X127720363Y-115069819D02*
X127625125Y-115069819D01*
X127625125Y-115069819D02*
X127482268Y-115117438D01*
X127482268Y-115117438D02*
X127434649Y-115165057D01*
X126434649Y-115974580D02*
X126482268Y-116022200D01*
X126482268Y-116022200D02*
X126625125Y-116069819D01*
X126625125Y-116069819D02*
X126720363Y-116069819D01*
X126720363Y-116069819D02*
X126863220Y-116022200D01*
X126863220Y-116022200D02*
X126958458Y-115926961D01*
X126958458Y-115926961D02*
X127006077Y-115831723D01*
X127006077Y-115831723D02*
X127053696Y-115641247D01*
X127053696Y-115641247D02*
X127053696Y-115498390D01*
X127053696Y-115498390D02*
X127006077Y-115307914D01*
X127006077Y-115307914D02*
X126958458Y-115212676D01*
X126958458Y-115212676D02*
X126863220Y-115117438D01*
X126863220Y-115117438D02*
X126720363Y-115069819D01*
X126720363Y-115069819D02*
X126625125Y-115069819D01*
X126625125Y-115069819D02*
X126482268Y-115117438D01*
X126482268Y-115117438D02*
X126434649Y-115165057D01*
X135506077Y-108169819D02*
X134934649Y-108169819D01*
X135220363Y-109169819D02*
X135220363Y-108169819D01*
X134601315Y-109169819D02*
X134601315Y-108169819D01*
X134601315Y-108169819D02*
X134220363Y-108169819D01*
X134220363Y-108169819D02*
X134125125Y-108217438D01*
X134125125Y-108217438D02*
X134077506Y-108265057D01*
X134077506Y-108265057D02*
X134029887Y-108360295D01*
X134029887Y-108360295D02*
X134029887Y-108503152D01*
X134029887Y-108503152D02*
X134077506Y-108598390D01*
X134077506Y-108598390D02*
X134125125Y-108646009D01*
X134125125Y-108646009D02*
X134220363Y-108693628D01*
X134220363Y-108693628D02*
X134601315Y-108693628D01*
X133077506Y-109169819D02*
X133648934Y-109169819D01*
X133363220Y-109169819D02*
X133363220Y-108169819D01*
X133363220Y-108169819D02*
X133458458Y-108312676D01*
X133458458Y-108312676D02*
X133553696Y-108407914D01*
X133553696Y-108407914D02*
X133648934Y-108455533D01*
X132506077Y-108598390D02*
X132601315Y-108550771D01*
X132601315Y-108550771D02*
X132648934Y-108503152D01*
X132648934Y-108503152D02*
X132696553Y-108407914D01*
X132696553Y-108407914D02*
X132696553Y-108360295D01*
X132696553Y-108360295D02*
X132648934Y-108265057D01*
X132648934Y-108265057D02*
X132601315Y-108217438D01*
X132601315Y-108217438D02*
X132506077Y-108169819D01*
X132506077Y-108169819D02*
X132315601Y-108169819D01*
X132315601Y-108169819D02*
X132220363Y-108217438D01*
X132220363Y-108217438D02*
X132172744Y-108265057D01*
X132172744Y-108265057D02*
X132125125Y-108360295D01*
X132125125Y-108360295D02*
X132125125Y-108407914D01*
X132125125Y-108407914D02*
X132172744Y-108503152D01*
X132172744Y-108503152D02*
X132220363Y-108550771D01*
X132220363Y-108550771D02*
X132315601Y-108598390D01*
X132315601Y-108598390D02*
X132506077Y-108598390D01*
X132506077Y-108598390D02*
X132601315Y-108646009D01*
X132601315Y-108646009D02*
X132648934Y-108693628D01*
X132648934Y-108693628D02*
X132696553Y-108788866D01*
X132696553Y-108788866D02*
X132696553Y-108979342D01*
X132696553Y-108979342D02*
X132648934Y-109074580D01*
X132648934Y-109074580D02*
X132601315Y-109122200D01*
X132601315Y-109122200D02*
X132506077Y-109169819D01*
X132506077Y-109169819D02*
X132315601Y-109169819D01*
X132315601Y-109169819D02*
X132220363Y-109122200D01*
X132220363Y-109122200D02*
X132172744Y-109074580D01*
X132172744Y-109074580D02*
X132125125Y-108979342D01*
X132125125Y-108979342D02*
X132125125Y-108788866D01*
X132125125Y-108788866D02*
X132172744Y-108693628D01*
X132172744Y-108693628D02*
X132220363Y-108646009D01*
X132220363Y-108646009D02*
X132315601Y-108598390D01*
X134939411Y-109517438D02*
X135034649Y-109469819D01*
X135034649Y-109469819D02*
X135177506Y-109469819D01*
X135177506Y-109469819D02*
X135320363Y-109517438D01*
X135320363Y-109517438D02*
X135415601Y-109612676D01*
X135415601Y-109612676D02*
X135463220Y-109707914D01*
X135463220Y-109707914D02*
X135510839Y-109898390D01*
X135510839Y-109898390D02*
X135510839Y-110041247D01*
X135510839Y-110041247D02*
X135463220Y-110231723D01*
X135463220Y-110231723D02*
X135415601Y-110326961D01*
X135415601Y-110326961D02*
X135320363Y-110422200D01*
X135320363Y-110422200D02*
X135177506Y-110469819D01*
X135177506Y-110469819D02*
X135082268Y-110469819D01*
X135082268Y-110469819D02*
X134939411Y-110422200D01*
X134939411Y-110422200D02*
X134891792Y-110374580D01*
X134891792Y-110374580D02*
X134891792Y-110041247D01*
X134891792Y-110041247D02*
X135082268Y-110041247D01*
X134463220Y-110469819D02*
X134463220Y-109469819D01*
X134463220Y-109469819D02*
X133891792Y-110469819D01*
X133891792Y-110469819D02*
X133891792Y-109469819D01*
X133415601Y-110469819D02*
X133415601Y-109469819D01*
X133415601Y-109469819D02*
X133177506Y-109469819D01*
X133177506Y-109469819D02*
X133034649Y-109517438D01*
X133034649Y-109517438D02*
X132939411Y-109612676D01*
X132939411Y-109612676D02*
X132891792Y-109707914D01*
X132891792Y-109707914D02*
X132844173Y-109898390D01*
X132844173Y-109898390D02*
X132844173Y-110041247D01*
X132844173Y-110041247D02*
X132891792Y-110231723D01*
X132891792Y-110231723D02*
X132939411Y-110326961D01*
X132939411Y-110326961D02*
X133034649Y-110422200D01*
X133034649Y-110422200D02*
X133177506Y-110469819D01*
X133177506Y-110469819D02*
X133415601Y-110469819D01*
X160819411Y-91092438D02*
X160914649Y-91044819D01*
X160914649Y-91044819D02*
X161057506Y-91044819D01*
X161057506Y-91044819D02*
X161200363Y-91092438D01*
X161200363Y-91092438D02*
X161295601Y-91187676D01*
X161295601Y-91187676D02*
X161343220Y-91282914D01*
X161343220Y-91282914D02*
X161390839Y-91473390D01*
X161390839Y-91473390D02*
X161390839Y-91616247D01*
X161390839Y-91616247D02*
X161343220Y-91806723D01*
X161343220Y-91806723D02*
X161295601Y-91901961D01*
X161295601Y-91901961D02*
X161200363Y-91997200D01*
X161200363Y-91997200D02*
X161057506Y-92044819D01*
X161057506Y-92044819D02*
X160962268Y-92044819D01*
X160962268Y-92044819D02*
X160819411Y-91997200D01*
X160819411Y-91997200D02*
X160771792Y-91949580D01*
X160771792Y-91949580D02*
X160771792Y-91616247D01*
X160771792Y-91616247D02*
X160962268Y-91616247D01*
X160343220Y-92044819D02*
X160343220Y-91044819D01*
X160343220Y-91044819D02*
X159771792Y-92044819D01*
X159771792Y-92044819D02*
X159771792Y-91044819D01*
X159295601Y-92044819D02*
X159295601Y-91044819D01*
X159295601Y-91044819D02*
X159057506Y-91044819D01*
X159057506Y-91044819D02*
X158914649Y-91092438D01*
X158914649Y-91092438D02*
X158819411Y-91187676D01*
X158819411Y-91187676D02*
X158771792Y-91282914D01*
X158771792Y-91282914D02*
X158724173Y-91473390D01*
X158724173Y-91473390D02*
X158724173Y-91616247D01*
X158724173Y-91616247D02*
X158771792Y-91806723D01*
X158771792Y-91806723D02*
X158819411Y-91901961D01*
X158819411Y-91901961D02*
X158914649Y-91997200D01*
X158914649Y-91997200D02*
X159057506Y-92044819D01*
X159057506Y-92044819D02*
X159295601Y-92044819D01*
X161486077Y-92844819D02*
X160914649Y-92844819D01*
X161200363Y-93844819D02*
X161200363Y-92844819D01*
X160581315Y-93844819D02*
X160581315Y-92844819D01*
X160581315Y-92844819D02*
X160200363Y-92844819D01*
X160200363Y-92844819D02*
X160105125Y-92892438D01*
X160105125Y-92892438D02*
X160057506Y-92940057D01*
X160057506Y-92940057D02*
X160009887Y-93035295D01*
X160009887Y-93035295D02*
X160009887Y-93178152D01*
X160009887Y-93178152D02*
X160057506Y-93273390D01*
X160057506Y-93273390D02*
X160105125Y-93321009D01*
X160105125Y-93321009D02*
X160200363Y-93368628D01*
X160200363Y-93368628D02*
X160581315Y-93368628D01*
X159628934Y-92940057D02*
X159581315Y-92892438D01*
X159581315Y-92892438D02*
X159486077Y-92844819D01*
X159486077Y-92844819D02*
X159247982Y-92844819D01*
X159247982Y-92844819D02*
X159152744Y-92892438D01*
X159152744Y-92892438D02*
X159105125Y-92940057D01*
X159105125Y-92940057D02*
X159057506Y-93035295D01*
X159057506Y-93035295D02*
X159057506Y-93130533D01*
X159057506Y-93130533D02*
X159105125Y-93273390D01*
X159105125Y-93273390D02*
X159676553Y-93844819D01*
X159676553Y-93844819D02*
X159057506Y-93844819D01*
X158438458Y-92844819D02*
X158343220Y-92844819D01*
X158343220Y-92844819D02*
X158247982Y-92892438D01*
X158247982Y-92892438D02*
X158200363Y-92940057D01*
X158200363Y-92940057D02*
X158152744Y-93035295D01*
X158152744Y-93035295D02*
X158105125Y-93225771D01*
X158105125Y-93225771D02*
X158105125Y-93463866D01*
X158105125Y-93463866D02*
X158152744Y-93654342D01*
X158152744Y-93654342D02*
X158200363Y-93749580D01*
X158200363Y-93749580D02*
X158247982Y-93797200D01*
X158247982Y-93797200D02*
X158343220Y-93844819D01*
X158343220Y-93844819D02*
X158438458Y-93844819D01*
X158438458Y-93844819D02*
X158533696Y-93797200D01*
X158533696Y-93797200D02*
X158581315Y-93749580D01*
X158581315Y-93749580D02*
X158628934Y-93654342D01*
X158628934Y-93654342D02*
X158676553Y-93463866D01*
X158676553Y-93463866D02*
X158676553Y-93225771D01*
X158676553Y-93225771D02*
X158628934Y-93035295D01*
X158628934Y-93035295D02*
X158581315Y-92940057D01*
X158581315Y-92940057D02*
X158533696Y-92892438D01*
X158533696Y-92892438D02*
X158438458Y-92844819D01*
X170863220Y-95669819D02*
X170863220Y-94669819D01*
X170863220Y-94669819D02*
X170529887Y-95384104D01*
X170529887Y-95384104D02*
X170196554Y-94669819D01*
X170196554Y-94669819D02*
X170196554Y-95669819D01*
X169720363Y-95669819D02*
X169720363Y-94669819D01*
X169291792Y-95622200D02*
X169148935Y-95669819D01*
X169148935Y-95669819D02*
X168910840Y-95669819D01*
X168910840Y-95669819D02*
X168815602Y-95622200D01*
X168815602Y-95622200D02*
X168767983Y-95574580D01*
X168767983Y-95574580D02*
X168720364Y-95479342D01*
X168720364Y-95479342D02*
X168720364Y-95384104D01*
X168720364Y-95384104D02*
X168767983Y-95288866D01*
X168767983Y-95288866D02*
X168815602Y-95241247D01*
X168815602Y-95241247D02*
X168910840Y-95193628D01*
X168910840Y-95193628D02*
X169101316Y-95146009D01*
X169101316Y-95146009D02*
X169196554Y-95098390D01*
X169196554Y-95098390D02*
X169244173Y-95050771D01*
X169244173Y-95050771D02*
X169291792Y-94955533D01*
X169291792Y-94955533D02*
X169291792Y-94860295D01*
X169291792Y-94860295D02*
X169244173Y-94765057D01*
X169244173Y-94765057D02*
X169196554Y-94717438D01*
X169196554Y-94717438D02*
X169101316Y-94669819D01*
X169101316Y-94669819D02*
X168863221Y-94669819D01*
X168863221Y-94669819D02*
X168720364Y-94717438D01*
X168101316Y-94669819D02*
X167910840Y-94669819D01*
X167910840Y-94669819D02*
X167815602Y-94717438D01*
X167815602Y-94717438D02*
X167720364Y-94812676D01*
X167720364Y-94812676D02*
X167672745Y-95003152D01*
X167672745Y-95003152D02*
X167672745Y-95336485D01*
X167672745Y-95336485D02*
X167720364Y-95526961D01*
X167720364Y-95526961D02*
X167815602Y-95622200D01*
X167815602Y-95622200D02*
X167910840Y-95669819D01*
X167910840Y-95669819D02*
X168101316Y-95669819D01*
X168101316Y-95669819D02*
X168196554Y-95622200D01*
X168196554Y-95622200D02*
X168291792Y-95526961D01*
X168291792Y-95526961D02*
X168339411Y-95336485D01*
X168339411Y-95336485D02*
X168339411Y-95003152D01*
X168339411Y-95003152D02*
X168291792Y-94812676D01*
X168291792Y-94812676D02*
X168196554Y-94717438D01*
X168196554Y-94717438D02*
X168101316Y-94669819D01*
X170906077Y-93369819D02*
X170334649Y-93369819D01*
X170620363Y-94369819D02*
X170620363Y-93369819D01*
X170001315Y-94369819D02*
X170001315Y-93369819D01*
X170001315Y-93369819D02*
X169620363Y-93369819D01*
X169620363Y-93369819D02*
X169525125Y-93417438D01*
X169525125Y-93417438D02*
X169477506Y-93465057D01*
X169477506Y-93465057D02*
X169429887Y-93560295D01*
X169429887Y-93560295D02*
X169429887Y-93703152D01*
X169429887Y-93703152D02*
X169477506Y-93798390D01*
X169477506Y-93798390D02*
X169525125Y-93846009D01*
X169525125Y-93846009D02*
X169620363Y-93893628D01*
X169620363Y-93893628D02*
X170001315Y-93893628D01*
X168477506Y-94369819D02*
X169048934Y-94369819D01*
X168763220Y-94369819D02*
X168763220Y-93369819D01*
X168763220Y-93369819D02*
X168858458Y-93512676D01*
X168858458Y-93512676D02*
X168953696Y-93607914D01*
X168953696Y-93607914D02*
X169048934Y-93655533D01*
X167525125Y-94369819D02*
X168096553Y-94369819D01*
X167810839Y-94369819D02*
X167810839Y-93369819D01*
X167810839Y-93369819D02*
X167906077Y-93512676D01*
X167906077Y-93512676D02*
X168001315Y-93607914D01*
X168001315Y-93607914D02*
X168096553Y-93655533D01*
X154230180Y-105506077D02*
X154230180Y-104934649D01*
X153230180Y-105220363D02*
X154230180Y-105220363D01*
X153230180Y-104601315D02*
X154230180Y-104601315D01*
X154230180Y-104601315D02*
X154230180Y-104220363D01*
X154230180Y-104220363D02*
X154182561Y-104125125D01*
X154182561Y-104125125D02*
X154134942Y-104077506D01*
X154134942Y-104077506D02*
X154039704Y-104029887D01*
X154039704Y-104029887D02*
X153896847Y-104029887D01*
X153896847Y-104029887D02*
X153801609Y-104077506D01*
X153801609Y-104077506D02*
X153753990Y-104125125D01*
X153753990Y-104125125D02*
X153706371Y-104220363D01*
X153706371Y-104220363D02*
X153706371Y-104601315D01*
X153230180Y-103553696D02*
X153230180Y-103363220D01*
X153230180Y-103363220D02*
X153277800Y-103267982D01*
X153277800Y-103267982D02*
X153325419Y-103220363D01*
X153325419Y-103220363D02*
X153468276Y-103125125D01*
X153468276Y-103125125D02*
X153658752Y-103077506D01*
X153658752Y-103077506D02*
X154039704Y-103077506D01*
X154039704Y-103077506D02*
X154134942Y-103125125D01*
X154134942Y-103125125D02*
X154182561Y-103172744D01*
X154182561Y-103172744D02*
X154230180Y-103267982D01*
X154230180Y-103267982D02*
X154230180Y-103458458D01*
X154230180Y-103458458D02*
X154182561Y-103553696D01*
X154182561Y-103553696D02*
X154134942Y-103601315D01*
X154134942Y-103601315D02*
X154039704Y-103648934D01*
X154039704Y-103648934D02*
X153801609Y-103648934D01*
X153801609Y-103648934D02*
X153706371Y-103601315D01*
X153706371Y-103601315D02*
X153658752Y-103553696D01*
X153658752Y-103553696D02*
X153611133Y-103458458D01*
X153611133Y-103458458D02*
X153611133Y-103267982D01*
X153611133Y-103267982D02*
X153658752Y-103172744D01*
X153658752Y-103172744D02*
X153706371Y-103125125D01*
X153706371Y-103125125D02*
X153801609Y-103077506D01*
X151977800Y-105410839D02*
X151930180Y-105267982D01*
X151930180Y-105267982D02*
X151930180Y-105029887D01*
X151930180Y-105029887D02*
X151977800Y-104934649D01*
X151977800Y-104934649D02*
X152025419Y-104887030D01*
X152025419Y-104887030D02*
X152120657Y-104839411D01*
X152120657Y-104839411D02*
X152215895Y-104839411D01*
X152215895Y-104839411D02*
X152311133Y-104887030D01*
X152311133Y-104887030D02*
X152358752Y-104934649D01*
X152358752Y-104934649D02*
X152406371Y-105029887D01*
X152406371Y-105029887D02*
X152453990Y-105220363D01*
X152453990Y-105220363D02*
X152501609Y-105315601D01*
X152501609Y-105315601D02*
X152549228Y-105363220D01*
X152549228Y-105363220D02*
X152644466Y-105410839D01*
X152644466Y-105410839D02*
X152739704Y-105410839D01*
X152739704Y-105410839D02*
X152834942Y-105363220D01*
X152834942Y-105363220D02*
X152882561Y-105315601D01*
X152882561Y-105315601D02*
X152930180Y-105220363D01*
X152930180Y-105220363D02*
X152930180Y-104982268D01*
X152930180Y-104982268D02*
X152882561Y-104839411D01*
X152930180Y-104506077D02*
X151930180Y-104267982D01*
X151930180Y-104267982D02*
X152644466Y-104077506D01*
X152644466Y-104077506D02*
X151930180Y-103887030D01*
X151930180Y-103887030D02*
X152930180Y-103648935D01*
X151930180Y-103267982D02*
X152930180Y-103267982D01*
X152930180Y-103267982D02*
X152930180Y-103029887D01*
X152930180Y-103029887D02*
X152882561Y-102887030D01*
X152882561Y-102887030D02*
X152787323Y-102791792D01*
X152787323Y-102791792D02*
X152692085Y-102744173D01*
X152692085Y-102744173D02*
X152501609Y-102696554D01*
X152501609Y-102696554D02*
X152358752Y-102696554D01*
X152358752Y-102696554D02*
X152168276Y-102744173D01*
X152168276Y-102744173D02*
X152073038Y-102791792D01*
X152073038Y-102791792D02*
X151977800Y-102887030D01*
X151977800Y-102887030D02*
X151930180Y-103029887D01*
X151930180Y-103029887D02*
X151930180Y-103267982D01*
X151930180Y-102267982D02*
X152930180Y-102267982D01*
X152930180Y-101601316D02*
X152930180Y-101410840D01*
X152930180Y-101410840D02*
X152882561Y-101315602D01*
X152882561Y-101315602D02*
X152787323Y-101220364D01*
X152787323Y-101220364D02*
X152596847Y-101172745D01*
X152596847Y-101172745D02*
X152263514Y-101172745D01*
X152263514Y-101172745D02*
X152073038Y-101220364D01*
X152073038Y-101220364D02*
X151977800Y-101315602D01*
X151977800Y-101315602D02*
X151930180Y-101410840D01*
X151930180Y-101410840D02*
X151930180Y-101601316D01*
X151930180Y-101601316D02*
X151977800Y-101696554D01*
X151977800Y-101696554D02*
X152073038Y-101791792D01*
X152073038Y-101791792D02*
X152263514Y-101839411D01*
X152263514Y-101839411D02*
X152596847Y-101839411D01*
X152596847Y-101839411D02*
X152787323Y-101791792D01*
X152787323Y-101791792D02*
X152882561Y-101696554D01*
X152882561Y-101696554D02*
X152930180Y-101601316D01*
X162006077Y-85469819D02*
X161434649Y-85469819D01*
X161720363Y-86469819D02*
X161720363Y-85469819D01*
X161101315Y-86469819D02*
X161101315Y-85469819D01*
X161101315Y-85469819D02*
X160720363Y-85469819D01*
X160720363Y-85469819D02*
X160625125Y-85517438D01*
X160625125Y-85517438D02*
X160577506Y-85565057D01*
X160577506Y-85565057D02*
X160529887Y-85660295D01*
X160529887Y-85660295D02*
X160529887Y-85803152D01*
X160529887Y-85803152D02*
X160577506Y-85898390D01*
X160577506Y-85898390D02*
X160625125Y-85946009D01*
X160625125Y-85946009D02*
X160720363Y-85993628D01*
X160720363Y-85993628D02*
X161101315Y-85993628D01*
X160148934Y-85565057D02*
X160101315Y-85517438D01*
X160101315Y-85517438D02*
X160006077Y-85469819D01*
X160006077Y-85469819D02*
X159767982Y-85469819D01*
X159767982Y-85469819D02*
X159672744Y-85517438D01*
X159672744Y-85517438D02*
X159625125Y-85565057D01*
X159625125Y-85565057D02*
X159577506Y-85660295D01*
X159577506Y-85660295D02*
X159577506Y-85755533D01*
X159577506Y-85755533D02*
X159625125Y-85898390D01*
X159625125Y-85898390D02*
X160196553Y-86469819D01*
X160196553Y-86469819D02*
X159577506Y-86469819D01*
X159196553Y-85565057D02*
X159148934Y-85517438D01*
X159148934Y-85517438D02*
X159053696Y-85469819D01*
X159053696Y-85469819D02*
X158815601Y-85469819D01*
X158815601Y-85469819D02*
X158720363Y-85517438D01*
X158720363Y-85517438D02*
X158672744Y-85565057D01*
X158672744Y-85565057D02*
X158625125Y-85660295D01*
X158625125Y-85660295D02*
X158625125Y-85755533D01*
X158625125Y-85755533D02*
X158672744Y-85898390D01*
X158672744Y-85898390D02*
X159244172Y-86469819D01*
X159244172Y-86469819D02*
X158625125Y-86469819D01*
X161439411Y-86817438D02*
X161534649Y-86769819D01*
X161534649Y-86769819D02*
X161677506Y-86769819D01*
X161677506Y-86769819D02*
X161820363Y-86817438D01*
X161820363Y-86817438D02*
X161915601Y-86912676D01*
X161915601Y-86912676D02*
X161963220Y-87007914D01*
X161963220Y-87007914D02*
X162010839Y-87198390D01*
X162010839Y-87198390D02*
X162010839Y-87341247D01*
X162010839Y-87341247D02*
X161963220Y-87531723D01*
X161963220Y-87531723D02*
X161915601Y-87626961D01*
X161915601Y-87626961D02*
X161820363Y-87722200D01*
X161820363Y-87722200D02*
X161677506Y-87769819D01*
X161677506Y-87769819D02*
X161582268Y-87769819D01*
X161582268Y-87769819D02*
X161439411Y-87722200D01*
X161439411Y-87722200D02*
X161391792Y-87674580D01*
X161391792Y-87674580D02*
X161391792Y-87341247D01*
X161391792Y-87341247D02*
X161582268Y-87341247D01*
X160963220Y-87769819D02*
X160963220Y-86769819D01*
X160963220Y-86769819D02*
X160391792Y-87769819D01*
X160391792Y-87769819D02*
X160391792Y-86769819D01*
X159915601Y-87769819D02*
X159915601Y-86769819D01*
X159915601Y-86769819D02*
X159677506Y-86769819D01*
X159677506Y-86769819D02*
X159534649Y-86817438D01*
X159534649Y-86817438D02*
X159439411Y-86912676D01*
X159439411Y-86912676D02*
X159391792Y-87007914D01*
X159391792Y-87007914D02*
X159344173Y-87198390D01*
X159344173Y-87198390D02*
X159344173Y-87341247D01*
X159344173Y-87341247D02*
X159391792Y-87531723D01*
X159391792Y-87531723D02*
X159439411Y-87626961D01*
X159439411Y-87626961D02*
X159534649Y-87722200D01*
X159534649Y-87722200D02*
X159677506Y-87769819D01*
X159677506Y-87769819D02*
X159915601Y-87769819D01*
X151339411Y-81817438D02*
X151434649Y-81769819D01*
X151434649Y-81769819D02*
X151577506Y-81769819D01*
X151577506Y-81769819D02*
X151720363Y-81817438D01*
X151720363Y-81817438D02*
X151815601Y-81912676D01*
X151815601Y-81912676D02*
X151863220Y-82007914D01*
X151863220Y-82007914D02*
X151910839Y-82198390D01*
X151910839Y-82198390D02*
X151910839Y-82341247D01*
X151910839Y-82341247D02*
X151863220Y-82531723D01*
X151863220Y-82531723D02*
X151815601Y-82626961D01*
X151815601Y-82626961D02*
X151720363Y-82722200D01*
X151720363Y-82722200D02*
X151577506Y-82769819D01*
X151577506Y-82769819D02*
X151482268Y-82769819D01*
X151482268Y-82769819D02*
X151339411Y-82722200D01*
X151339411Y-82722200D02*
X151291792Y-82674580D01*
X151291792Y-82674580D02*
X151291792Y-82341247D01*
X151291792Y-82341247D02*
X151482268Y-82341247D01*
X150863220Y-82769819D02*
X150863220Y-81769819D01*
X150863220Y-81769819D02*
X150291792Y-82769819D01*
X150291792Y-82769819D02*
X150291792Y-81769819D01*
X149815601Y-82769819D02*
X149815601Y-81769819D01*
X149815601Y-81769819D02*
X149577506Y-81769819D01*
X149577506Y-81769819D02*
X149434649Y-81817438D01*
X149434649Y-81817438D02*
X149339411Y-81912676D01*
X149339411Y-81912676D02*
X149291792Y-82007914D01*
X149291792Y-82007914D02*
X149244173Y-82198390D01*
X149244173Y-82198390D02*
X149244173Y-82341247D01*
X149244173Y-82341247D02*
X149291792Y-82531723D01*
X149291792Y-82531723D02*
X149339411Y-82626961D01*
X149339411Y-82626961D02*
X149434649Y-82722200D01*
X149434649Y-82722200D02*
X149577506Y-82769819D01*
X149577506Y-82769819D02*
X149815601Y-82769819D01*
X151906077Y-80469819D02*
X151334649Y-80469819D01*
X151620363Y-81469819D02*
X151620363Y-80469819D01*
X151001315Y-81469819D02*
X151001315Y-80469819D01*
X151001315Y-80469819D02*
X150620363Y-80469819D01*
X150620363Y-80469819D02*
X150525125Y-80517438D01*
X150525125Y-80517438D02*
X150477506Y-80565057D01*
X150477506Y-80565057D02*
X150429887Y-80660295D01*
X150429887Y-80660295D02*
X150429887Y-80803152D01*
X150429887Y-80803152D02*
X150477506Y-80898390D01*
X150477506Y-80898390D02*
X150525125Y-80946009D01*
X150525125Y-80946009D02*
X150620363Y-80993628D01*
X150620363Y-80993628D02*
X151001315Y-80993628D01*
X150048934Y-80565057D02*
X150001315Y-80517438D01*
X150001315Y-80517438D02*
X149906077Y-80469819D01*
X149906077Y-80469819D02*
X149667982Y-80469819D01*
X149667982Y-80469819D02*
X149572744Y-80517438D01*
X149572744Y-80517438D02*
X149525125Y-80565057D01*
X149525125Y-80565057D02*
X149477506Y-80660295D01*
X149477506Y-80660295D02*
X149477506Y-80755533D01*
X149477506Y-80755533D02*
X149525125Y-80898390D01*
X149525125Y-80898390D02*
X150096553Y-81469819D01*
X150096553Y-81469819D02*
X149477506Y-81469819D01*
X148620363Y-80803152D02*
X148620363Y-81469819D01*
X148858458Y-80422200D02*
X149096553Y-81136485D01*
X149096553Y-81136485D02*
X148477506Y-81136485D01*
X147872744Y-101869819D02*
X147682268Y-101869819D01*
X147682268Y-101869819D02*
X147587030Y-101917438D01*
X147587030Y-101917438D02*
X147491792Y-102012676D01*
X147491792Y-102012676D02*
X147444173Y-102203152D01*
X147444173Y-102203152D02*
X147444173Y-102536485D01*
X147444173Y-102536485D02*
X147491792Y-102726961D01*
X147491792Y-102726961D02*
X147587030Y-102822200D01*
X147587030Y-102822200D02*
X147682268Y-102869819D01*
X147682268Y-102869819D02*
X147872744Y-102869819D01*
X147872744Y-102869819D02*
X147967982Y-102822200D01*
X147967982Y-102822200D02*
X148063220Y-102726961D01*
X148063220Y-102726961D02*
X148110839Y-102536485D01*
X148110839Y-102536485D02*
X148110839Y-102203152D01*
X148110839Y-102203152D02*
X148063220Y-102012676D01*
X148063220Y-102012676D02*
X147967982Y-101917438D01*
X147967982Y-101917438D02*
X147872744Y-101869819D01*
X147063220Y-102822200D02*
X146920363Y-102869819D01*
X146920363Y-102869819D02*
X146682268Y-102869819D01*
X146682268Y-102869819D02*
X146587030Y-102822200D01*
X146587030Y-102822200D02*
X146539411Y-102774580D01*
X146539411Y-102774580D02*
X146491792Y-102679342D01*
X146491792Y-102679342D02*
X146491792Y-102584104D01*
X146491792Y-102584104D02*
X146539411Y-102488866D01*
X146539411Y-102488866D02*
X146587030Y-102441247D01*
X146587030Y-102441247D02*
X146682268Y-102393628D01*
X146682268Y-102393628D02*
X146872744Y-102346009D01*
X146872744Y-102346009D02*
X146967982Y-102298390D01*
X146967982Y-102298390D02*
X147015601Y-102250771D01*
X147015601Y-102250771D02*
X147063220Y-102155533D01*
X147063220Y-102155533D02*
X147063220Y-102060295D01*
X147063220Y-102060295D02*
X147015601Y-101965057D01*
X147015601Y-101965057D02*
X146967982Y-101917438D01*
X146967982Y-101917438D02*
X146872744Y-101869819D01*
X146872744Y-101869819D02*
X146634649Y-101869819D01*
X146634649Y-101869819D02*
X146491792Y-101917438D01*
X145491792Y-102774580D02*
X145539411Y-102822200D01*
X145539411Y-102822200D02*
X145682268Y-102869819D01*
X145682268Y-102869819D02*
X145777506Y-102869819D01*
X145777506Y-102869819D02*
X145920363Y-102822200D01*
X145920363Y-102822200D02*
X146015601Y-102726961D01*
X146015601Y-102726961D02*
X146063220Y-102631723D01*
X146063220Y-102631723D02*
X146110839Y-102441247D01*
X146110839Y-102441247D02*
X146110839Y-102298390D01*
X146110839Y-102298390D02*
X146063220Y-102107914D01*
X146063220Y-102107914D02*
X146015601Y-102012676D01*
X146015601Y-102012676D02*
X145920363Y-101917438D01*
X145920363Y-101917438D02*
X145777506Y-101869819D01*
X145777506Y-101869819D02*
X145682268Y-101869819D01*
X145682268Y-101869819D02*
X145539411Y-101917438D01*
X145539411Y-101917438D02*
X145491792Y-101965057D01*
X145158458Y-101869819D02*
X144539411Y-101869819D01*
X144539411Y-101869819D02*
X144872744Y-102250771D01*
X144872744Y-102250771D02*
X144729887Y-102250771D01*
X144729887Y-102250771D02*
X144634649Y-102298390D01*
X144634649Y-102298390D02*
X144587030Y-102346009D01*
X144587030Y-102346009D02*
X144539411Y-102441247D01*
X144539411Y-102441247D02*
X144539411Y-102679342D01*
X144539411Y-102679342D02*
X144587030Y-102774580D01*
X144587030Y-102774580D02*
X144634649Y-102822200D01*
X144634649Y-102822200D02*
X144729887Y-102869819D01*
X144729887Y-102869819D02*
X145015601Y-102869819D01*
X145015601Y-102869819D02*
X145110839Y-102822200D01*
X145110839Y-102822200D02*
X145158458Y-102774580D01*
X144158458Y-101965057D02*
X144110839Y-101917438D01*
X144110839Y-101917438D02*
X144015601Y-101869819D01*
X144015601Y-101869819D02*
X143777506Y-101869819D01*
X143777506Y-101869819D02*
X143682268Y-101917438D01*
X143682268Y-101917438D02*
X143634649Y-101965057D01*
X143634649Y-101965057D02*
X143587030Y-102060295D01*
X143587030Y-102060295D02*
X143587030Y-102155533D01*
X143587030Y-102155533D02*
X143634649Y-102298390D01*
X143634649Y-102298390D02*
X144206077Y-102869819D01*
X144206077Y-102869819D02*
X143587030Y-102869819D01*
X143396554Y-102965057D02*
X142634649Y-102965057D01*
X142206077Y-101869819D02*
X142015601Y-101869819D01*
X142015601Y-101869819D02*
X141920363Y-101917438D01*
X141920363Y-101917438D02*
X141825125Y-102012676D01*
X141825125Y-102012676D02*
X141777506Y-102203152D01*
X141777506Y-102203152D02*
X141777506Y-102536485D01*
X141777506Y-102536485D02*
X141825125Y-102726961D01*
X141825125Y-102726961D02*
X141920363Y-102822200D01*
X141920363Y-102822200D02*
X142015601Y-102869819D01*
X142015601Y-102869819D02*
X142206077Y-102869819D01*
X142206077Y-102869819D02*
X142301315Y-102822200D01*
X142301315Y-102822200D02*
X142396553Y-102726961D01*
X142396553Y-102726961D02*
X142444172Y-102536485D01*
X142444172Y-102536485D02*
X142444172Y-102203152D01*
X142444172Y-102203152D02*
X142396553Y-102012676D01*
X142396553Y-102012676D02*
X142301315Y-101917438D01*
X142301315Y-101917438D02*
X142206077Y-101869819D01*
X141348934Y-101869819D02*
X141348934Y-102679342D01*
X141348934Y-102679342D02*
X141301315Y-102774580D01*
X141301315Y-102774580D02*
X141253696Y-102822200D01*
X141253696Y-102822200D02*
X141158458Y-102869819D01*
X141158458Y-102869819D02*
X140967982Y-102869819D01*
X140967982Y-102869819D02*
X140872744Y-102822200D01*
X140872744Y-102822200D02*
X140825125Y-102774580D01*
X140825125Y-102774580D02*
X140777506Y-102679342D01*
X140777506Y-102679342D02*
X140777506Y-101869819D01*
X140444172Y-101869819D02*
X139872744Y-101869819D01*
X140158458Y-102869819D02*
X140158458Y-101869819D01*
X148106077Y-100569819D02*
X147534649Y-100569819D01*
X147820363Y-101569819D02*
X147820363Y-100569819D01*
X147201315Y-101569819D02*
X147201315Y-100569819D01*
X147201315Y-100569819D02*
X146820363Y-100569819D01*
X146820363Y-100569819D02*
X146725125Y-100617438D01*
X146725125Y-100617438D02*
X146677506Y-100665057D01*
X146677506Y-100665057D02*
X146629887Y-100760295D01*
X146629887Y-100760295D02*
X146629887Y-100903152D01*
X146629887Y-100903152D02*
X146677506Y-100998390D01*
X146677506Y-100998390D02*
X146725125Y-101046009D01*
X146725125Y-101046009D02*
X146820363Y-101093628D01*
X146820363Y-101093628D02*
X147201315Y-101093628D01*
X145725125Y-100569819D02*
X146201315Y-100569819D01*
X146201315Y-100569819D02*
X146248934Y-101046009D01*
X146248934Y-101046009D02*
X146201315Y-100998390D01*
X146201315Y-100998390D02*
X146106077Y-100950771D01*
X146106077Y-100950771D02*
X145867982Y-100950771D01*
X145867982Y-100950771D02*
X145772744Y-100998390D01*
X145772744Y-100998390D02*
X145725125Y-101046009D01*
X145725125Y-101046009D02*
X145677506Y-101141247D01*
X145677506Y-101141247D02*
X145677506Y-101379342D01*
X145677506Y-101379342D02*
X145725125Y-101474580D01*
X145725125Y-101474580D02*
X145772744Y-101522200D01*
X145772744Y-101522200D02*
X145867982Y-101569819D01*
X145867982Y-101569819D02*
X146106077Y-101569819D01*
X146106077Y-101569819D02*
X146201315Y-101522200D01*
X146201315Y-101522200D02*
X146248934Y-101474580D01*
X157310839Y-83422200D02*
X157167982Y-83469819D01*
X157167982Y-83469819D02*
X156929887Y-83469819D01*
X156929887Y-83469819D02*
X156834649Y-83422200D01*
X156834649Y-83422200D02*
X156787030Y-83374580D01*
X156787030Y-83374580D02*
X156739411Y-83279342D01*
X156739411Y-83279342D02*
X156739411Y-83184104D01*
X156739411Y-83184104D02*
X156787030Y-83088866D01*
X156787030Y-83088866D02*
X156834649Y-83041247D01*
X156834649Y-83041247D02*
X156929887Y-82993628D01*
X156929887Y-82993628D02*
X157120363Y-82946009D01*
X157120363Y-82946009D02*
X157215601Y-82898390D01*
X157215601Y-82898390D02*
X157263220Y-82850771D01*
X157263220Y-82850771D02*
X157310839Y-82755533D01*
X157310839Y-82755533D02*
X157310839Y-82660295D01*
X157310839Y-82660295D02*
X157263220Y-82565057D01*
X157263220Y-82565057D02*
X157215601Y-82517438D01*
X157215601Y-82517438D02*
X157120363Y-82469819D01*
X157120363Y-82469819D02*
X156882268Y-82469819D01*
X156882268Y-82469819D02*
X156739411Y-82517438D01*
X156310839Y-83469819D02*
X156310839Y-82469819D01*
X156310839Y-82469819D02*
X156072744Y-82469819D01*
X156072744Y-82469819D02*
X155929887Y-82517438D01*
X155929887Y-82517438D02*
X155834649Y-82612676D01*
X155834649Y-82612676D02*
X155787030Y-82707914D01*
X155787030Y-82707914D02*
X155739411Y-82898390D01*
X155739411Y-82898390D02*
X155739411Y-83041247D01*
X155739411Y-83041247D02*
X155787030Y-83231723D01*
X155787030Y-83231723D02*
X155834649Y-83326961D01*
X155834649Y-83326961D02*
X155929887Y-83422200D01*
X155929887Y-83422200D02*
X156072744Y-83469819D01*
X156072744Y-83469819D02*
X156310839Y-83469819D01*
X155358458Y-83184104D02*
X154882268Y-83184104D01*
X155453696Y-83469819D02*
X155120363Y-82469819D01*
X155120363Y-82469819D02*
X154787030Y-83469819D01*
X157306077Y-81169819D02*
X156734649Y-81169819D01*
X157020363Y-82169819D02*
X157020363Y-81169819D01*
X156401315Y-82169819D02*
X156401315Y-81169819D01*
X156401315Y-81169819D02*
X156020363Y-81169819D01*
X156020363Y-81169819D02*
X155925125Y-81217438D01*
X155925125Y-81217438D02*
X155877506Y-81265057D01*
X155877506Y-81265057D02*
X155829887Y-81360295D01*
X155829887Y-81360295D02*
X155829887Y-81503152D01*
X155829887Y-81503152D02*
X155877506Y-81598390D01*
X155877506Y-81598390D02*
X155925125Y-81646009D01*
X155925125Y-81646009D02*
X156020363Y-81693628D01*
X156020363Y-81693628D02*
X156401315Y-81693628D01*
X154877506Y-82169819D02*
X155448934Y-82169819D01*
X155163220Y-82169819D02*
X155163220Y-81169819D01*
X155163220Y-81169819D02*
X155258458Y-81312676D01*
X155258458Y-81312676D02*
X155353696Y-81407914D01*
X155353696Y-81407914D02*
X155448934Y-81455533D01*
X168739411Y-83917438D02*
X168834649Y-83869819D01*
X168834649Y-83869819D02*
X168977506Y-83869819D01*
X168977506Y-83869819D02*
X169120363Y-83917438D01*
X169120363Y-83917438D02*
X169215601Y-84012676D01*
X169215601Y-84012676D02*
X169263220Y-84107914D01*
X169263220Y-84107914D02*
X169310839Y-84298390D01*
X169310839Y-84298390D02*
X169310839Y-84441247D01*
X169310839Y-84441247D02*
X169263220Y-84631723D01*
X169263220Y-84631723D02*
X169215601Y-84726961D01*
X169215601Y-84726961D02*
X169120363Y-84822200D01*
X169120363Y-84822200D02*
X168977506Y-84869819D01*
X168977506Y-84869819D02*
X168882268Y-84869819D01*
X168882268Y-84869819D02*
X168739411Y-84822200D01*
X168739411Y-84822200D02*
X168691792Y-84774580D01*
X168691792Y-84774580D02*
X168691792Y-84441247D01*
X168691792Y-84441247D02*
X168882268Y-84441247D01*
X168263220Y-84869819D02*
X168263220Y-83869819D01*
X168263220Y-83869819D02*
X167691792Y-84869819D01*
X167691792Y-84869819D02*
X167691792Y-83869819D01*
X167215601Y-84869819D02*
X167215601Y-83869819D01*
X167215601Y-83869819D02*
X166977506Y-83869819D01*
X166977506Y-83869819D02*
X166834649Y-83917438D01*
X166834649Y-83917438D02*
X166739411Y-84012676D01*
X166739411Y-84012676D02*
X166691792Y-84107914D01*
X166691792Y-84107914D02*
X166644173Y-84298390D01*
X166644173Y-84298390D02*
X166644173Y-84441247D01*
X166644173Y-84441247D02*
X166691792Y-84631723D01*
X166691792Y-84631723D02*
X166739411Y-84726961D01*
X166739411Y-84726961D02*
X166834649Y-84822200D01*
X166834649Y-84822200D02*
X166977506Y-84869819D01*
X166977506Y-84869819D02*
X167215601Y-84869819D01*
X169306077Y-82569819D02*
X168734649Y-82569819D01*
X169020363Y-83569819D02*
X169020363Y-82569819D01*
X168401315Y-83569819D02*
X168401315Y-82569819D01*
X168401315Y-82569819D02*
X168020363Y-82569819D01*
X168020363Y-82569819D02*
X167925125Y-82617438D01*
X167925125Y-82617438D02*
X167877506Y-82665057D01*
X167877506Y-82665057D02*
X167829887Y-82760295D01*
X167829887Y-82760295D02*
X167829887Y-82903152D01*
X167829887Y-82903152D02*
X167877506Y-82998390D01*
X167877506Y-82998390D02*
X167925125Y-83046009D01*
X167925125Y-83046009D02*
X168020363Y-83093628D01*
X168020363Y-83093628D02*
X168401315Y-83093628D01*
X167448934Y-82665057D02*
X167401315Y-82617438D01*
X167401315Y-82617438D02*
X167306077Y-82569819D01*
X167306077Y-82569819D02*
X167067982Y-82569819D01*
X167067982Y-82569819D02*
X166972744Y-82617438D01*
X166972744Y-82617438D02*
X166925125Y-82665057D01*
X166925125Y-82665057D02*
X166877506Y-82760295D01*
X166877506Y-82760295D02*
X166877506Y-82855533D01*
X166877506Y-82855533D02*
X166925125Y-82998390D01*
X166925125Y-82998390D02*
X167496553Y-83569819D01*
X167496553Y-83569819D02*
X166877506Y-83569819D01*
X166544172Y-82569819D02*
X165925125Y-82569819D01*
X165925125Y-82569819D02*
X166258458Y-82950771D01*
X166258458Y-82950771D02*
X166115601Y-82950771D01*
X166115601Y-82950771D02*
X166020363Y-82998390D01*
X166020363Y-82998390D02*
X165972744Y-83046009D01*
X165972744Y-83046009D02*
X165925125Y-83141247D01*
X165925125Y-83141247D02*
X165925125Y-83379342D01*
X165925125Y-83379342D02*
X165972744Y-83474580D01*
X165972744Y-83474580D02*
X166020363Y-83522200D01*
X166020363Y-83522200D02*
X166115601Y-83569819D01*
X166115601Y-83569819D02*
X166401315Y-83569819D01*
X166401315Y-83569819D02*
X166496553Y-83522200D01*
X166496553Y-83522200D02*
X166544172Y-83474580D01*
X139206077Y-103569819D02*
X138634649Y-103569819D01*
X138920363Y-104569819D02*
X138920363Y-103569819D01*
X138301315Y-104569819D02*
X138301315Y-103569819D01*
X138301315Y-103569819D02*
X137920363Y-103569819D01*
X137920363Y-103569819D02*
X137825125Y-103617438D01*
X137825125Y-103617438D02*
X137777506Y-103665057D01*
X137777506Y-103665057D02*
X137729887Y-103760295D01*
X137729887Y-103760295D02*
X137729887Y-103903152D01*
X137729887Y-103903152D02*
X137777506Y-103998390D01*
X137777506Y-103998390D02*
X137825125Y-104046009D01*
X137825125Y-104046009D02*
X137920363Y-104093628D01*
X137920363Y-104093628D02*
X138301315Y-104093628D01*
X136777506Y-104569819D02*
X137348934Y-104569819D01*
X137063220Y-104569819D02*
X137063220Y-103569819D01*
X137063220Y-103569819D02*
X137158458Y-103712676D01*
X137158458Y-103712676D02*
X137253696Y-103807914D01*
X137253696Y-103807914D02*
X137348934Y-103855533D01*
X136444172Y-103569819D02*
X135777506Y-103569819D01*
X135777506Y-103569819D02*
X136206077Y-104569819D01*
X138639411Y-104917438D02*
X138734649Y-104869819D01*
X138734649Y-104869819D02*
X138877506Y-104869819D01*
X138877506Y-104869819D02*
X139020363Y-104917438D01*
X139020363Y-104917438D02*
X139115601Y-105012676D01*
X139115601Y-105012676D02*
X139163220Y-105107914D01*
X139163220Y-105107914D02*
X139210839Y-105298390D01*
X139210839Y-105298390D02*
X139210839Y-105441247D01*
X139210839Y-105441247D02*
X139163220Y-105631723D01*
X139163220Y-105631723D02*
X139115601Y-105726961D01*
X139115601Y-105726961D02*
X139020363Y-105822200D01*
X139020363Y-105822200D02*
X138877506Y-105869819D01*
X138877506Y-105869819D02*
X138782268Y-105869819D01*
X138782268Y-105869819D02*
X138639411Y-105822200D01*
X138639411Y-105822200D02*
X138591792Y-105774580D01*
X138591792Y-105774580D02*
X138591792Y-105441247D01*
X138591792Y-105441247D02*
X138782268Y-105441247D01*
X138163220Y-105869819D02*
X138163220Y-104869819D01*
X138163220Y-104869819D02*
X137591792Y-105869819D01*
X137591792Y-105869819D02*
X137591792Y-104869819D01*
X137115601Y-105869819D02*
X137115601Y-104869819D01*
X137115601Y-104869819D02*
X136877506Y-104869819D01*
X136877506Y-104869819D02*
X136734649Y-104917438D01*
X136734649Y-104917438D02*
X136639411Y-105012676D01*
X136639411Y-105012676D02*
X136591792Y-105107914D01*
X136591792Y-105107914D02*
X136544173Y-105298390D01*
X136544173Y-105298390D02*
X136544173Y-105441247D01*
X136544173Y-105441247D02*
X136591792Y-105631723D01*
X136591792Y-105631723D02*
X136639411Y-105726961D01*
X136639411Y-105726961D02*
X136734649Y-105822200D01*
X136734649Y-105822200D02*
X136877506Y-105869819D01*
X136877506Y-105869819D02*
X137115601Y-105869819D01*
D11*
%TO.C,TP10*%
X165020000Y-96180000D02*
X164620000Y-95780000D01*
X165020000Y-97780000D02*
X164620000Y-98180000D01*
X166620000Y-96180000D02*
X167020000Y-95780000D01*
X166620000Y-97780000D02*
X167020000Y-98180000D01*
%TO.C,TP13*%
X149780000Y-106340000D02*
X149380000Y-105940000D01*
X149780000Y-107940000D02*
X149380000Y-108340000D01*
X151380000Y-106340000D02*
X151780000Y-105940000D01*
X151380000Y-107940000D02*
X151780000Y-108340000D01*
%TO.C,TP2*%
X147240000Y-83480000D02*
X146840000Y-83080000D01*
X147240000Y-85080000D02*
X146840000Y-85480000D01*
X148840000Y-83480000D02*
X149240000Y-83080000D01*
X148840000Y-85080000D02*
X149240000Y-85480000D01*
%TO.C,TP8*%
X154860000Y-106340000D02*
X154460000Y-105940000D01*
X154860000Y-107940000D02*
X154460000Y-108340000D01*
X156460000Y-106340000D02*
X156860000Y-105940000D01*
X156460000Y-107940000D02*
X156860000Y-108340000D01*
%TO.C,TP19*%
X152320000Y-108880000D02*
X151920000Y-108480000D01*
X152320000Y-110480000D02*
X151920000Y-110880000D01*
X153920000Y-108880000D02*
X154320000Y-108480000D01*
X153920000Y-110480000D02*
X154320000Y-110880000D01*
%TO.C,TP4*%
X142160000Y-93640000D02*
X141760000Y-93240000D01*
X142160000Y-95240000D02*
X141760000Y-95640000D01*
X143760000Y-93640000D02*
X144160000Y-93240000D01*
X143760000Y-95240000D02*
X144160000Y-95640000D01*
%TO.C,TP16*%
X126920000Y-108880000D02*
X126520000Y-108480000D01*
X126920000Y-110480000D02*
X126520000Y-110880000D01*
X128520000Y-108880000D02*
X128920000Y-108480000D01*
X128520000Y-110480000D02*
X128920000Y-110880000D01*
%TO.C,TP21*%
X139620000Y-93640000D02*
X139220000Y-93240000D01*
X139620000Y-95240000D02*
X139220000Y-95640000D01*
X141220000Y-93640000D02*
X141620000Y-93240000D01*
X141220000Y-95240000D02*
X141620000Y-95640000D01*
%TO.C,TP3*%
X157400000Y-88560000D02*
X157000000Y-88160000D01*
X157400000Y-90160000D02*
X157000000Y-90560000D01*
X159000000Y-88560000D02*
X159400000Y-88160000D01*
X159000000Y-90160000D02*
X159400000Y-90560000D01*
%TO.C,TP6*%
X137080000Y-98720000D02*
X136680000Y-98320000D01*
X137080000Y-100320000D02*
X136680000Y-100720000D01*
X138680000Y-98720000D02*
X139080000Y-98320000D01*
X138680000Y-100320000D02*
X139080000Y-100720000D01*
%TO.C,TP7*%
X137080000Y-96180000D02*
X136680000Y-95780000D01*
X137080000Y-97780000D02*
X136680000Y-98180000D01*
X138680000Y-96180000D02*
X139080000Y-95780000D01*
X138680000Y-97780000D02*
X139080000Y-98180000D01*
%TO.C,TP14*%
X172640000Y-83480000D02*
X172240000Y-83080000D01*
X172640000Y-85080000D02*
X172240000Y-85480000D01*
X174240000Y-83480000D02*
X174640000Y-83080000D01*
X174240000Y-85080000D02*
X174640000Y-85480000D01*
%TO.C,TP12*%
X165020000Y-91100000D02*
X164620000Y-90700000D01*
X165020000Y-92700000D02*
X164620000Y-93100000D01*
X166620000Y-91100000D02*
X167020000Y-90700000D01*
X166620000Y-92700000D02*
X167020000Y-93100000D01*
%TO.C,TP15*%
X126920000Y-111420000D02*
X126520000Y-111020000D01*
X126920000Y-113020000D02*
X126520000Y-113420000D01*
X128520000Y-111420000D02*
X128920000Y-111020000D01*
X128520000Y-113020000D02*
X128920000Y-113420000D01*
%TO.C,TP18*%
X129460000Y-108880000D02*
X129060000Y-108480000D01*
X129460000Y-110480000D02*
X129060000Y-110880000D01*
X131060000Y-108880000D02*
X131460000Y-108480000D01*
X131060000Y-110480000D02*
X131460000Y-110880000D01*
%TO.C,TP20*%
X162480000Y-93575000D02*
X162080000Y-93175000D01*
X162480000Y-95175000D02*
X162080000Y-95575000D01*
X164080000Y-93575000D02*
X164480000Y-93175000D01*
X164080000Y-95175000D02*
X164480000Y-95575000D01*
%TO.C,TP11*%
X165020000Y-93640000D02*
X164620000Y-93240000D01*
X165020000Y-95240000D02*
X164620000Y-95640000D01*
X166620000Y-93640000D02*
X167020000Y-93240000D01*
X166620000Y-95240000D02*
X167020000Y-95640000D01*
%TO.C,TP9*%
X152320000Y-106340000D02*
X151920000Y-105940000D01*
X152320000Y-107940000D02*
X151920000Y-108340000D01*
X153920000Y-106340000D02*
X154320000Y-105940000D01*
X153920000Y-107940000D02*
X154320000Y-108340000D01*
%TO.C,TP22*%
X159940000Y-88560000D02*
X159540000Y-88160000D01*
X159940000Y-90160000D02*
X159540000Y-90560000D01*
X161540000Y-88560000D02*
X161940000Y-88160000D01*
X161540000Y-90160000D02*
X161940000Y-90560000D01*
%TO.C,TP24*%
X149780000Y-83480000D02*
X149380000Y-83080000D01*
X149780000Y-85080000D02*
X149380000Y-85480000D01*
X151380000Y-83480000D02*
X151780000Y-83080000D01*
X151380000Y-85080000D02*
X151780000Y-85480000D01*
%TO.C,TP5*%
X142160000Y-103800000D02*
X141760000Y-103400000D01*
X142160000Y-105400000D02*
X141760000Y-105800000D01*
X143760000Y-103800000D02*
X144160000Y-103400000D01*
X143760000Y-105400000D02*
X144160000Y-105800000D01*
%TO.C,TP1*%
X152320000Y-83480000D02*
X151920000Y-83080000D01*
X152320000Y-85080000D02*
X151920000Y-85480000D01*
X153920000Y-83480000D02*
X154320000Y-83080000D01*
X153920000Y-85080000D02*
X154320000Y-85480000D01*
%TO.C,TP23*%
X170100000Y-83480000D02*
X169700000Y-83080000D01*
X170100000Y-85080000D02*
X169700000Y-85480000D01*
X171700000Y-83480000D02*
X172100000Y-83080000D01*
X171700000Y-85080000D02*
X172100000Y-85480000D01*
%TO.C,TP17*%
X137080000Y-101260000D02*
X136680000Y-100860000D01*
X137080000Y-102860000D02*
X136680000Y-103260000D01*
X138680000Y-101260000D02*
X139080000Y-100860000D01*
X138680000Y-102860000D02*
X139080000Y-103260000D01*
%TD*%
M02*
