%TF.GenerationSoftware,KiCad,Pcbnew,9.0.7*%
%TF.CreationDate,2026-02-11T16:14:45+01:00*%
%TF.ProjectId,6gend-mb1,3667656e-642d-46d6-9231-2e6b69636164,1a*%
%TF.SameCoordinates,Original*%
%TF.FileFunction,Soldermask,Top*%
%TF.FilePolarity,Negative*%
%FSLAX46Y46*%
G04 Gerber Fmt 4.6, Leading zero omitted, Abs format (unit mm)*
G04 Created by KiCad (PCBNEW 9.0.7) date 2026-02-11 16:14:45*
%MOMM*%
%LPD*%
G01*
G04 APERTURE LIST*
G04 Aperture macros list*
%AMRoundRect*
0 Rectangle with rounded corners*
0 $1 Rounding radius*
0 $2 $3 $4 $5 $6 $7 $8 $9 X,Y pos of 4 corners*
0 Add a 4 corners polygon primitive as box body*
4,1,4,$2,$3,$4,$5,$6,$7,$8,$9,$2,$3,0*
0 Add four circle primitives for the rounded corners*
1,1,$1+$1,$2,$3*
1,1,$1+$1,$4,$5*
1,1,$1+$1,$6,$7*
1,1,$1+$1,$8,$9*
0 Add four rect primitives between the rounded corners*
20,1,$1+$1,$2,$3,$4,$5,0*
20,1,$1+$1,$4,$5,$6,$7,0*
20,1,$1+$1,$6,$7,$8,$9,0*
20,1,$1+$1,$8,$9,$2,$3,0*%
%AMOutline5P*
0 Free polygon, 5 corners , with rotation*
0 The origin of the aperture is its center*
0 number of corners: always 5*
0 $1 to $10 corner X, Y*
0 $11 Rotation angle, in degrees counterclockwise*
0 create outline with 5 corners*
4,1,5,$1,$2,$3,$4,$5,$6,$7,$8,$9,$10,$1,$2,$11*%
%AMOutline6P*
0 Free polygon, 6 corners , with rotation*
0 The origin of the aperture is its center*
0 number of corners: always 6*
0 $1 to $12 corner X, Y*
0 $13 Rotation angle, in degrees counterclockwise*
0 create outline with 6 corners*
4,1,6,$1,$2,$3,$4,$5,$6,$7,$8,$9,$10,$11,$12,$1,$2,$13*%
%AMOutline7P*
0 Free polygon, 7 corners , with rotation*
0 The origin of the aperture is its center*
0 number of corners: always 7*
0 $1 to $14 corner X, Y*
0 $15 Rotation angle, in degrees counterclockwise*
0 create outline with 7 corners*
4,1,7,$1,$2,$3,$4,$5,$6,$7,$8,$9,$10,$11,$12,$13,$14,$1,$2,$15*%
%AMOutline8P*
0 Free polygon, 8 corners , with rotation*
0 The origin of the aperture is its center*
0 number of corners: always 8*
0 $1 to $16 corner X, Y*
0 $17 Rotation angle, in degrees counterclockwise*
0 create outline with 8 corners*
4,1,8,$1,$2,$3,$4,$5,$6,$7,$8,$9,$10,$11,$12,$13,$14,$15,$16,$1,$2,$17*%
G04 Aperture macros list end*
%ADD10RoundRect,0.225000X-0.250000X0.225000X-0.250000X-0.225000X0.250000X-0.225000X0.250000X0.225000X0*%
%ADD11Outline8P,-0.950000X0.475000X-0.475000X0.950000X0.475000X0.950000X0.950000X0.475000X0.950000X-0.475000X0.475000X-0.950000X-0.475000X-0.950000X-0.950000X-0.475000X0.000000*%
%ADD12RoundRect,0.225000X0.225000X0.250000X-0.225000X0.250000X-0.225000X-0.250000X0.225000X-0.250000X0*%
%ADD13RoundRect,0.225000X-0.225000X-0.250000X0.225000X-0.250000X0.225000X0.250000X-0.225000X0.250000X0*%
%ADD14RoundRect,0.200000X-0.275000X0.200000X-0.275000X-0.200000X0.275000X-0.200000X0.275000X0.200000X0*%
%ADD15C,3.200000*%
%ADD16C,1.000000*%
%ADD17RoundRect,0.225000X0.250000X-0.225000X0.250000X0.225000X-0.250000X0.225000X-0.250000X-0.225000X0*%
%ADD18R,1.700000X1.700000*%
%ADD19O,1.700000X1.700000*%
%ADD20R,1.000000X1.000000*%
%ADD21O,1.000000X1.000000*%
%ADD22RoundRect,0.200000X0.200000X0.275000X-0.200000X0.275000X-0.200000X-0.275000X0.200000X-0.275000X0*%
%ADD23RoundRect,0.100000X-0.637500X-0.100000X0.637500X-0.100000X0.637500X0.100000X-0.637500X0.100000X0*%
%ADD24R,1.200000X0.600000*%
G04 APERTURE END LIST*
D10*
%TO.C,C1*%
X136200000Y-90225000D03*
X136200000Y-91775000D03*
%TD*%
%TO.C,C11*%
X147387500Y-102325000D03*
X147387500Y-103875000D03*
%TD*%
D11*
%TO.C,TP10*%
X165820000Y-96980000D03*
%TD*%
%TO.C,TP13*%
X150580000Y-107140000D03*
%TD*%
D12*
%TO.C,C9*%
X170975000Y-79700000D03*
X169425000Y-79700000D03*
%TD*%
D13*
%TO.C,C10*%
X158325000Y-113600000D03*
X159875000Y-113600000D03*
%TD*%
D14*
%TO.C,R3*%
X152800000Y-89050000D03*
X152800000Y-90700000D03*
%TD*%
D11*
%TO.C,TP2*%
X148040000Y-84280000D03*
%TD*%
D13*
%TO.C,C5*%
X135425000Y-113600000D03*
X136975000Y-113600000D03*
%TD*%
D11*
%TO.C,TP8*%
X155660000Y-107140000D03*
%TD*%
%TO.C,TP19*%
X153120000Y-109680000D03*
%TD*%
D15*
%TO.C,H3*%
X125700000Y-69100000D03*
%TD*%
D16*
%TO.C,FID2*%
X125700000Y-114100000D03*
%TD*%
D17*
%TO.C,C8*%
X145487500Y-96875000D03*
X145487500Y-95325000D03*
%TD*%
D11*
%TO.C,TP4*%
X142960000Y-94440000D03*
%TD*%
D10*
%TO.C,C12*%
X145487500Y-102325000D03*
X145487500Y-103875000D03*
%TD*%
D17*
%TO.C,C7*%
X147287500Y-96875000D03*
X147287500Y-95325000D03*
%TD*%
D11*
%TO.C,TP16*%
X127720000Y-109680000D03*
%TD*%
D17*
%TO.C,C6*%
X132400000Y-118975000D03*
X132400000Y-117425000D03*
%TD*%
D11*
%TO.C,TP21*%
X140420000Y-94440000D03*
%TD*%
%TO.C,TP3*%
X158200000Y-89360000D03*
%TD*%
D18*
%TO.C,J5*%
X170980000Y-116400000D03*
D19*
X168440000Y-116400000D03*
X165900000Y-116400000D03*
X163360000Y-116400000D03*
X160820000Y-116400000D03*
X158280000Y-116400000D03*
X170980000Y-118940000D03*
X168440000Y-118940000D03*
X165900000Y-118940000D03*
X163360000Y-118940000D03*
X160820000Y-118940000D03*
X158280000Y-118940000D03*
%TD*%
D11*
%TO.C,TP6*%
X137880000Y-99520000D03*
%TD*%
D18*
%TO.C,J2*%
X135420000Y-76800000D03*
D19*
X137960000Y-76800000D03*
X140500000Y-76800000D03*
X143040000Y-76800000D03*
X145580000Y-76800000D03*
X148120000Y-76800000D03*
X135420000Y-74260000D03*
X137960000Y-74260000D03*
X140500000Y-74260000D03*
X143040000Y-74260000D03*
X145580000Y-74260000D03*
X148120000Y-74260000D03*
%TD*%
D11*
%TO.C,TP7*%
X137880000Y-96980000D03*
%TD*%
D18*
%TO.C,J1*%
X133400000Y-102950000D03*
D19*
X133400000Y-100410000D03*
X133400000Y-97870000D03*
X133400000Y-95330000D03*
X133400000Y-92790000D03*
X133400000Y-90250000D03*
X130860000Y-102950000D03*
X130860000Y-100410000D03*
X130860000Y-97870000D03*
X130860000Y-95330000D03*
X130860000Y-92790000D03*
X130860000Y-90250000D03*
%TD*%
D16*
%TO.C,FID3*%
X125700000Y-79100000D03*
%TD*%
D14*
%TO.C,R6*%
X155600000Y-90275000D03*
X155600000Y-91925000D03*
%TD*%
D11*
%TO.C,TP14*%
X173440000Y-84280000D03*
%TD*%
D17*
%TO.C,C14*%
X170100000Y-102975000D03*
X170100000Y-101425000D03*
%TD*%
D11*
%TO.C,TP12*%
X165820000Y-91900000D03*
%TD*%
%TO.C,TP15*%
X127720000Y-112220000D03*
%TD*%
D15*
%TO.C,H2*%
X180700000Y-124100000D03*
%TD*%
%TO.C,H1*%
X180700000Y-69100000D03*
%TD*%
D14*
%TO.C,R7*%
X160800000Y-82575000D03*
X160800000Y-84225000D03*
%TD*%
D11*
%TO.C,TP18*%
X130260000Y-109680000D03*
%TD*%
%TO.C,TP20*%
X163280000Y-94375000D03*
%TD*%
%TO.C,TP11*%
X165820000Y-94440000D03*
%TD*%
D18*
%TO.C,J3*%
X148120000Y-116400000D03*
D19*
X145580000Y-116400000D03*
X143040000Y-116400000D03*
X140500000Y-116400000D03*
X137960000Y-116400000D03*
X135420000Y-116400000D03*
X148120000Y-118940000D03*
X145580000Y-118940000D03*
X143040000Y-118940000D03*
X140500000Y-118940000D03*
X137960000Y-118940000D03*
X135420000Y-118940000D03*
%TD*%
D14*
%TO.C,R1*%
X138000000Y-82575000D03*
X138000000Y-84225000D03*
%TD*%
D11*
%TO.C,TP9*%
X153120000Y-107140000D03*
%TD*%
%TO.C,TP22*%
X160740000Y-89360000D03*
%TD*%
D15*
%TO.C,H4*%
X125700000Y-124100000D03*
%TD*%
D20*
%TO.C,J6*%
X161230000Y-104530000D03*
D21*
X162500000Y-104530000D03*
X161230000Y-105800000D03*
X162500000Y-105800000D03*
X161230000Y-107070000D03*
X162500000Y-107070000D03*
X161230000Y-108340000D03*
X162500000Y-108340000D03*
X161230000Y-109610000D03*
X162500000Y-109610000D03*
%TD*%
D18*
%TO.C,J4*%
X158280000Y-76800000D03*
D19*
X160820000Y-76800000D03*
X163360000Y-76800000D03*
X165900000Y-76800000D03*
X168440000Y-76800000D03*
X170980000Y-76800000D03*
X158280000Y-74260000D03*
X160820000Y-74260000D03*
X163360000Y-74260000D03*
X165900000Y-74260000D03*
X168440000Y-74260000D03*
X170980000Y-74260000D03*
%TD*%
D22*
%TO.C,R5*%
X143850000Y-101975000D03*
X142200000Y-101975000D03*
%TD*%
D23*
%TO.C,U1*%
X149925000Y-96275000D03*
X149925000Y-96925000D03*
X149925000Y-97575000D03*
X149925000Y-98225000D03*
X149925000Y-98875000D03*
X149925000Y-99525000D03*
X149925000Y-100175000D03*
X149925000Y-100825000D03*
X149925000Y-101475000D03*
X149925000Y-102125000D03*
X155650000Y-102125000D03*
X155650000Y-101475000D03*
X155650000Y-100825000D03*
X155650000Y-100175000D03*
X155650000Y-99525000D03*
X155650000Y-98875000D03*
X155650000Y-98225000D03*
X155650000Y-97575000D03*
X155650000Y-96925000D03*
X155650000Y-96275000D03*
%TD*%
D11*
%TO.C,TP24*%
X150580000Y-84280000D03*
%TD*%
D17*
%TO.C,C13*%
X155400000Y-118975000D03*
X155400000Y-117425000D03*
%TD*%
D13*
%TO.C,C3*%
X143012500Y-98700000D03*
X144562500Y-98700000D03*
%TD*%
D18*
%TO.C,J7*%
X173000000Y-90250000D03*
D19*
X173000000Y-92790000D03*
X173000000Y-95330000D03*
X173000000Y-97870000D03*
X173000000Y-100410000D03*
X173000000Y-102950000D03*
X175540000Y-90250000D03*
X175540000Y-92790000D03*
X175540000Y-95330000D03*
X175540000Y-97870000D03*
X175540000Y-100410000D03*
X175540000Y-102950000D03*
%TD*%
D11*
%TO.C,TP5*%
X142960000Y-104600000D03*
%TD*%
D22*
%TO.C,R4*%
X143950000Y-97075000D03*
X142300000Y-97075000D03*
%TD*%
D24*
%TO.C,Y1*%
X146787500Y-100000000D03*
X146787500Y-98800000D03*
%TD*%
D13*
%TO.C,C4*%
X143012500Y-100300000D03*
X144562500Y-100300000D03*
%TD*%
D16*
%TO.C,FID1*%
X180700000Y-79100000D03*
%TD*%
D11*
%TO.C,TP1*%
X153120000Y-84280000D03*
%TD*%
D12*
%TO.C,C2*%
X148075000Y-79700000D03*
X146525000Y-79700000D03*
%TD*%
D11*
%TO.C,TP23*%
X170900000Y-84280000D03*
%TD*%
D14*
%TO.C,R2*%
X150500000Y-89075000D03*
X150500000Y-90725000D03*
%TD*%
D11*
%TO.C,TP17*%
X137880000Y-102060000D03*
%TD*%
M02*
