%TF.GenerationSoftware,KiCad,Pcbnew,9.0.7*%
%TF.CreationDate,2026-02-11T16:14:46+01:00*%
%TF.ProjectId,6gend-mb1,3667656e-642d-46d6-9231-2e6b69636164,1a*%
%TF.SameCoordinates,Original*%
%TF.FileFunction,Plated,1,2,PTH,Drill*%
%TF.FilePolarity,Positive*%
%FSLAX46Y46*%
G04 Gerber Fmt 4.6, Leading zero omitted, Abs format (unit mm)*
G04 Created by KiCad (PCBNEW 9.0.7) date 2026-02-11 16:14:46*
%MOMM*%
%LPD*%
G01*
G04 APERTURE LIST*
%TA.AperFunction,ViaDrill*%
%ADD10C,0.300000*%
%TD*%
%TA.AperFunction,ComponentDrill*%
%ADD11C,0.650000*%
%TD*%
%TA.AperFunction,ComponentDrill*%
%ADD12C,0.900000*%
%TD*%
%TA.AperFunction,ComponentDrill*%
%ADD13C,1.000000*%
%TD*%
G04 APERTURE END LIST*
D10*
X123600000Y-112400000D03*
X125300000Y-112300000D03*
X132400000Y-116400000D03*
X133900000Y-118000000D03*
X133900000Y-119900000D03*
X136200000Y-92800000D03*
X138000000Y-113600000D03*
X138200000Y-90200000D03*
X139500000Y-90200000D03*
X140749000Y-72200000D03*
X141000000Y-87900000D03*
X141071000Y-92800000D03*
X142025000Y-98675000D03*
X142025000Y-100275000D03*
X142382330Y-92988349D03*
X143200000Y-71400000D03*
X143200000Y-111900000D03*
X143200000Y-113300000D03*
X143500000Y-87900000D03*
X145425000Y-94375000D03*
X145425000Y-104875000D03*
X145500000Y-79700000D03*
X146000000Y-81700000D03*
X146000000Y-83600000D03*
X146000000Y-87200000D03*
X146000000Y-88600000D03*
X146500000Y-105700000D03*
X146500000Y-107600000D03*
X147000000Y-81600000D03*
X147000000Y-83000000D03*
X147225000Y-94275000D03*
X147325000Y-104875000D03*
X148200000Y-70500000D03*
X148700000Y-96500000D03*
X149400000Y-89075000D03*
X149900000Y-69700000D03*
X149900000Y-73700000D03*
X150700000Y-87900000D03*
X150700000Y-95500000D03*
X150800000Y-91900000D03*
X151000000Y-100800000D03*
X151200000Y-108600000D03*
X151200000Y-110300000D03*
X151200000Y-112600000D03*
X151300000Y-96900000D03*
X151800000Y-110800000D03*
X151800000Y-112000000D03*
X152300000Y-100800000D03*
X152431000Y-105600000D03*
X152500000Y-91900000D03*
X152600000Y-87900000D03*
X153600000Y-105500000D03*
X153900000Y-89100000D03*
X155000000Y-105500000D03*
X155400000Y-116500000D03*
X155600000Y-89300000D03*
X156900000Y-91200000D03*
X156900000Y-92600000D03*
X157000000Y-100125000D03*
X157100000Y-98100000D03*
X157300000Y-110800000D03*
X157300000Y-113200000D03*
X158300000Y-98800000D03*
X158300000Y-100200000D03*
X158500000Y-79600000D03*
X158500000Y-80700000D03*
X159500000Y-120000000D03*
X159500000Y-121800000D03*
X159800000Y-95100000D03*
X159800000Y-96400000D03*
X160900000Y-113600000D03*
X161100000Y-80700000D03*
X161300000Y-79600000D03*
X163400000Y-72200000D03*
X165300000Y-112700000D03*
X165900000Y-71400000D03*
X166600000Y-112700000D03*
X168400000Y-79700000D03*
X168800000Y-96100000D03*
X168800000Y-97300000D03*
X170100000Y-100400000D03*
X171000000Y-70500000D03*
X173000000Y-88000000D03*
X176100000Y-76800000D03*
X178000000Y-104800000D03*
X180200000Y-104800000D03*
D11*
%TO.C,J6*%
X161230000Y-104530000D03*
X161230000Y-105800000D03*
X161230000Y-107070000D03*
X161230000Y-108340000D03*
X161230000Y-109610000D03*
X162500000Y-104530000D03*
X162500000Y-105800000D03*
X162500000Y-107070000D03*
X162500000Y-108340000D03*
X162500000Y-109610000D03*
D12*
%TO.C,TP16*%
X127720000Y-109680000D03*
%TO.C,TP15*%
X127720000Y-112220000D03*
%TO.C,TP18*%
X130260000Y-109680000D03*
%TO.C,TP7*%
X137880000Y-96980000D03*
%TO.C,TP6*%
X137880000Y-99520000D03*
%TO.C,TP17*%
X137880000Y-102060000D03*
%TO.C,TP21*%
X140420000Y-94440000D03*
%TO.C,TP4*%
X142960000Y-94440000D03*
%TO.C,TP5*%
X142960000Y-104600000D03*
%TO.C,TP2*%
X148040000Y-84280000D03*
%TO.C,TP24*%
X150580000Y-84280000D03*
%TO.C,TP13*%
X150580000Y-107140000D03*
%TO.C,TP1*%
X153120000Y-84280000D03*
%TO.C,TP9*%
X153120000Y-107140000D03*
%TO.C,TP19*%
X153120000Y-109680000D03*
%TO.C,TP8*%
X155660000Y-107140000D03*
%TO.C,TP3*%
X158200000Y-89360000D03*
%TO.C,TP22*%
X160740000Y-89360000D03*
%TO.C,TP20*%
X163280000Y-94375000D03*
%TO.C,TP12*%
X165820000Y-91900000D03*
%TO.C,TP11*%
X165820000Y-94440000D03*
%TO.C,TP10*%
X165820000Y-96980000D03*
%TO.C,TP23*%
X170900000Y-84280000D03*
%TO.C,TP14*%
X173440000Y-84280000D03*
D13*
%TO.C,J1*%
X130860000Y-90250000D03*
X130860000Y-92790000D03*
X130860000Y-95330000D03*
X130860000Y-97870000D03*
X130860000Y-100410000D03*
X130860000Y-102950000D03*
X133400000Y-90250000D03*
X133400000Y-92790000D03*
X133400000Y-95330000D03*
X133400000Y-97870000D03*
X133400000Y-100410000D03*
X133400000Y-102950000D03*
%TO.C,J2*%
X135420000Y-74260000D03*
X135420000Y-76800000D03*
%TO.C,J3*%
X135420000Y-116400000D03*
X135420000Y-118940000D03*
%TO.C,J2*%
X137960000Y-74260000D03*
X137960000Y-76800000D03*
%TO.C,J3*%
X137960000Y-116400000D03*
X137960000Y-118940000D03*
%TO.C,J2*%
X140500000Y-74260000D03*
X140500000Y-76800000D03*
%TO.C,J3*%
X140500000Y-116400000D03*
X140500000Y-118940000D03*
%TO.C,J2*%
X143040000Y-74260000D03*
X143040000Y-76800000D03*
%TO.C,J3*%
X143040000Y-116400000D03*
X143040000Y-118940000D03*
%TO.C,J2*%
X145580000Y-74260000D03*
X145580000Y-76800000D03*
%TO.C,J3*%
X145580000Y-116400000D03*
X145580000Y-118940000D03*
%TO.C,J2*%
X148120000Y-74260000D03*
X148120000Y-76800000D03*
%TO.C,J3*%
X148120000Y-116400000D03*
X148120000Y-118940000D03*
%TO.C,J4*%
X158280000Y-74260000D03*
X158280000Y-76800000D03*
%TO.C,J5*%
X158280000Y-116400000D03*
X158280000Y-118940000D03*
%TO.C,J4*%
X160820000Y-74260000D03*
X160820000Y-76800000D03*
%TO.C,J5*%
X160820000Y-116400000D03*
X160820000Y-118940000D03*
%TO.C,J4*%
X163360000Y-74260000D03*
X163360000Y-76800000D03*
%TO.C,J5*%
X163360000Y-116400000D03*
X163360000Y-118940000D03*
%TO.C,J4*%
X165900000Y-74260000D03*
X165900000Y-76800000D03*
%TO.C,J5*%
X165900000Y-116400000D03*
X165900000Y-118940000D03*
%TO.C,J4*%
X168440000Y-74260000D03*
X168440000Y-76800000D03*
%TO.C,J5*%
X168440000Y-116400000D03*
X168440000Y-118940000D03*
%TO.C,J4*%
X170980000Y-74260000D03*
X170980000Y-76800000D03*
%TO.C,J5*%
X170980000Y-116400000D03*
X170980000Y-118940000D03*
%TO.C,J7*%
X173000000Y-90250000D03*
X173000000Y-92790000D03*
X173000000Y-95330000D03*
X173000000Y-97870000D03*
X173000000Y-100410000D03*
X173000000Y-102950000D03*
X175540000Y-90250000D03*
X175540000Y-92790000D03*
X175540000Y-95330000D03*
X175540000Y-97870000D03*
X175540000Y-100410000D03*
X175540000Y-102950000D03*
M02*
