%TF.GenerationSoftware,KiCad,Pcbnew,9.0.7*%
%TF.CreationDate,2026-02-11T16:14:45+01:00*%
%TF.ProjectId,6gend-mb1,3667656e-642d-46d6-9231-2e6b69636164,1a*%
%TF.SameCoordinates,Original*%
%TF.FileFunction,Paste,Top*%
%TF.FilePolarity,Positive*%
%FSLAX46Y46*%
G04 Gerber Fmt 4.6, Leading zero omitted, Abs format (unit mm)*
G04 Created by KiCad (PCBNEW 9.0.7) date 2026-02-11 16:14:45*
%MOMM*%
%LPD*%
G01*
G04 APERTURE LIST*
G04 Aperture macros list*
%AMRoundRect*
0 Rectangle with rounded corners*
0 $1 Rounding radius*
0 $2 $3 $4 $5 $6 $7 $8 $9 X,Y pos of 4 corners*
0 Add a 4 corners polygon primitive as box body*
4,1,4,$2,$3,$4,$5,$6,$7,$8,$9,$2,$3,0*
0 Add four circle primitives for the rounded corners*
1,1,$1+$1,$2,$3*
1,1,$1+$1,$4,$5*
1,1,$1+$1,$6,$7*
1,1,$1+$1,$8,$9*
0 Add four rect primitives between the rounded corners*
20,1,$1+$1,$2,$3,$4,$5,0*
20,1,$1+$1,$4,$5,$6,$7,0*
20,1,$1+$1,$6,$7,$8,$9,0*
20,1,$1+$1,$8,$9,$2,$3,0*%
G04 Aperture macros list end*
%ADD10RoundRect,0.225000X-0.250000X0.225000X-0.250000X-0.225000X0.250000X-0.225000X0.250000X0.225000X0*%
%ADD11RoundRect,0.225000X0.225000X0.250000X-0.225000X0.250000X-0.225000X-0.250000X0.225000X-0.250000X0*%
%ADD12RoundRect,0.225000X-0.225000X-0.250000X0.225000X-0.250000X0.225000X0.250000X-0.225000X0.250000X0*%
%ADD13RoundRect,0.200000X-0.275000X0.200000X-0.275000X-0.200000X0.275000X-0.200000X0.275000X0.200000X0*%
%ADD14RoundRect,0.225000X0.250000X-0.225000X0.250000X0.225000X-0.250000X0.225000X-0.250000X-0.225000X0*%
%ADD15RoundRect,0.200000X0.200000X0.275000X-0.200000X0.275000X-0.200000X-0.275000X0.200000X-0.275000X0*%
%ADD16RoundRect,0.100000X-0.637500X-0.100000X0.637500X-0.100000X0.637500X0.100000X-0.637500X0.100000X0*%
%ADD17R,1.200000X0.600000*%
G04 APERTURE END LIST*
D10*
%TO.C,C1*%
X136200000Y-90225000D03*
X136200000Y-91775000D03*
%TD*%
%TO.C,C11*%
X147387500Y-102325000D03*
X147387500Y-103875000D03*
%TD*%
D11*
%TO.C,C9*%
X170975000Y-79700000D03*
X169425000Y-79700000D03*
%TD*%
D12*
%TO.C,C10*%
X158325000Y-113600000D03*
X159875000Y-113600000D03*
%TD*%
D13*
%TO.C,R3*%
X152800000Y-89050000D03*
X152800000Y-90700000D03*
%TD*%
D12*
%TO.C,C5*%
X135425000Y-113600000D03*
X136975000Y-113600000D03*
%TD*%
D14*
%TO.C,C8*%
X145487500Y-96875000D03*
X145487500Y-95325000D03*
%TD*%
D10*
%TO.C,C12*%
X145487500Y-102325000D03*
X145487500Y-103875000D03*
%TD*%
D14*
%TO.C,C7*%
X147287500Y-96875000D03*
X147287500Y-95325000D03*
%TD*%
%TO.C,C6*%
X132400000Y-118975000D03*
X132400000Y-117425000D03*
%TD*%
D13*
%TO.C,R6*%
X155600000Y-90275000D03*
X155600000Y-91925000D03*
%TD*%
D14*
%TO.C,C14*%
X170100000Y-102975000D03*
X170100000Y-101425000D03*
%TD*%
D13*
%TO.C,R7*%
X160800000Y-82575000D03*
X160800000Y-84225000D03*
%TD*%
%TO.C,R1*%
X138000000Y-82575000D03*
X138000000Y-84225000D03*
%TD*%
D15*
%TO.C,R5*%
X143850000Y-101975000D03*
X142200000Y-101975000D03*
%TD*%
D16*
%TO.C,U1*%
X149925000Y-96275000D03*
X149925000Y-96925000D03*
X149925000Y-97575000D03*
X149925000Y-98225000D03*
X149925000Y-98875000D03*
X149925000Y-99525000D03*
X149925000Y-100175000D03*
X149925000Y-100825000D03*
X149925000Y-101475000D03*
X149925000Y-102125000D03*
X155650000Y-102125000D03*
X155650000Y-101475000D03*
X155650000Y-100825000D03*
X155650000Y-100175000D03*
X155650000Y-99525000D03*
X155650000Y-98875000D03*
X155650000Y-98225000D03*
X155650000Y-97575000D03*
X155650000Y-96925000D03*
X155650000Y-96275000D03*
%TD*%
D14*
%TO.C,C13*%
X155400000Y-118975000D03*
X155400000Y-117425000D03*
%TD*%
D12*
%TO.C,C3*%
X143012500Y-98700000D03*
X144562500Y-98700000D03*
%TD*%
D15*
%TO.C,R4*%
X143950000Y-97075000D03*
X142300000Y-97075000D03*
%TD*%
D17*
%TO.C,Y1*%
X146787500Y-100000000D03*
X146787500Y-98800000D03*
%TD*%
D12*
%TO.C,C4*%
X143012500Y-100300000D03*
X144562500Y-100300000D03*
%TD*%
D11*
%TO.C,C2*%
X148075000Y-79700000D03*
X146525000Y-79700000D03*
%TD*%
D13*
%TO.C,R2*%
X150500000Y-89075000D03*
X150500000Y-90725000D03*
%TD*%
M02*
