%TF.GenerationSoftware,KiCad,Pcbnew,9.0.7*%
%TF.CreationDate,2026-02-11T16:14:47+01:00*%
%TF.ProjectId,6gend-mb1,3667656e-642d-46d6-9231-2e6b69636164,1a*%
%TF.SameCoordinates,Original*%
%TF.FileFunction,Drillmap*%
%TF.FilePolarity,Positive*%
%FSLAX45Y45*%
G04 Gerber Fmt 4.5, Leading zero omitted, Abs format (unit mm)*
G04 Created by KiCad (PCBNEW 9.0.7) date 2026-02-11 16:14:47*
%MOMM*%
%LPD*%
G01*
G04 APERTURE LIST*
%ADD10C,0.100000*%
%ADD11C,0.200000*%
%ADD12C,0.320000*%
G04 APERTURE END LIST*
D10*
X12070000Y-6910000D02*
G75*
G02*
X12570000Y-6410000I500000J0D01*
G01*
X12070000Y-12410000D02*
X12070000Y-6910000D01*
X18570000Y-6910000D02*
X18570000Y-12410000D01*
X12570000Y-12910000D02*
G75*
G02*
X12070000Y-12410000I0J500000D01*
G01*
X18070000Y-6410000D02*
G75*
G02*
X18570000Y-6910000I0J-500000D01*
G01*
X12570000Y-6410000D02*
X18070000Y-6410000D01*
X18070000Y-12910000D02*
X12570000Y-12910000D01*
X18570000Y-12410000D02*
G75*
G02*
X18070000Y-12910000I-500000J0D01*
G01*
D11*
D12*
X12410000Y-6750000D02*
X12730000Y-7070000D01*
X12730000Y-6750000D02*
X12410000Y-7070000D01*
X12410000Y-12250000D02*
X12730000Y-12570000D01*
X12730000Y-12250000D02*
X12410000Y-12570000D01*
X17910000Y-6750000D02*
X18230000Y-7070000D01*
X18230000Y-6750000D02*
X17910000Y-7070000D01*
X17910000Y-12250000D02*
X18230000Y-12570000D01*
X18230000Y-12250000D02*
X17910000Y-12570000D01*
D11*
X12325777Y-13226484D02*
X12325777Y-13026484D01*
X12325777Y-13026484D02*
X12373396Y-13026484D01*
X12373396Y-13026484D02*
X12401967Y-13036008D01*
X12401967Y-13036008D02*
X12421015Y-13055055D01*
X12421015Y-13055055D02*
X12430539Y-13074103D01*
X12430539Y-13074103D02*
X12440062Y-13112198D01*
X12440062Y-13112198D02*
X12440062Y-13140769D01*
X12440062Y-13140769D02*
X12430539Y-13178865D01*
X12430539Y-13178865D02*
X12421015Y-13197912D01*
X12421015Y-13197912D02*
X12401967Y-13216960D01*
X12401967Y-13216960D02*
X12373396Y-13226484D01*
X12373396Y-13226484D02*
X12325777Y-13226484D01*
X12525777Y-13226484D02*
X12525777Y-13093150D01*
X12525777Y-13131246D02*
X12535301Y-13112198D01*
X12535301Y-13112198D02*
X12544824Y-13102674D01*
X12544824Y-13102674D02*
X12563872Y-13093150D01*
X12563872Y-13093150D02*
X12582920Y-13093150D01*
X12649586Y-13226484D02*
X12649586Y-13093150D01*
X12649586Y-13026484D02*
X12640062Y-13036008D01*
X12640062Y-13036008D02*
X12649586Y-13045531D01*
X12649586Y-13045531D02*
X12659110Y-13036008D01*
X12659110Y-13036008D02*
X12649586Y-13026484D01*
X12649586Y-13026484D02*
X12649586Y-13045531D01*
X12773396Y-13226484D02*
X12754348Y-13216960D01*
X12754348Y-13216960D02*
X12744824Y-13197912D01*
X12744824Y-13197912D02*
X12744824Y-13026484D01*
X12878158Y-13226484D02*
X12859110Y-13216960D01*
X12859110Y-13216960D02*
X12849586Y-13197912D01*
X12849586Y-13197912D02*
X12849586Y-13026484D01*
X13106729Y-13226484D02*
X13106729Y-13026484D01*
X13106729Y-13026484D02*
X13173396Y-13169341D01*
X13173396Y-13169341D02*
X13240062Y-13026484D01*
X13240062Y-13026484D02*
X13240062Y-13226484D01*
X13421015Y-13226484D02*
X13421015Y-13121722D01*
X13421015Y-13121722D02*
X13411491Y-13102674D01*
X13411491Y-13102674D02*
X13392443Y-13093150D01*
X13392443Y-13093150D02*
X13354348Y-13093150D01*
X13354348Y-13093150D02*
X13335301Y-13102674D01*
X13421015Y-13216960D02*
X13401967Y-13226484D01*
X13401967Y-13226484D02*
X13354348Y-13226484D01*
X13354348Y-13226484D02*
X13335301Y-13216960D01*
X13335301Y-13216960D02*
X13325777Y-13197912D01*
X13325777Y-13197912D02*
X13325777Y-13178865D01*
X13325777Y-13178865D02*
X13335301Y-13159817D01*
X13335301Y-13159817D02*
X13354348Y-13150293D01*
X13354348Y-13150293D02*
X13401967Y-13150293D01*
X13401967Y-13150293D02*
X13421015Y-13140769D01*
X13516253Y-13093150D02*
X13516253Y-13293150D01*
X13516253Y-13102674D02*
X13535301Y-13093150D01*
X13535301Y-13093150D02*
X13573396Y-13093150D01*
X13573396Y-13093150D02*
X13592443Y-13102674D01*
X13592443Y-13102674D02*
X13601967Y-13112198D01*
X13601967Y-13112198D02*
X13611491Y-13131246D01*
X13611491Y-13131246D02*
X13611491Y-13188388D01*
X13611491Y-13188388D02*
X13601967Y-13207436D01*
X13601967Y-13207436D02*
X13592443Y-13216960D01*
X13592443Y-13216960D02*
X13573396Y-13226484D01*
X13573396Y-13226484D02*
X13535301Y-13226484D01*
X13535301Y-13226484D02*
X13516253Y-13216960D01*
X13697205Y-13207436D02*
X13706729Y-13216960D01*
X13706729Y-13216960D02*
X13697205Y-13226484D01*
X13697205Y-13226484D02*
X13687682Y-13216960D01*
X13687682Y-13216960D02*
X13697205Y-13207436D01*
X13697205Y-13207436D02*
X13697205Y-13226484D01*
X13697205Y-13102674D02*
X13706729Y-13112198D01*
X13706729Y-13112198D02*
X13697205Y-13121722D01*
X13697205Y-13121722D02*
X13687682Y-13112198D01*
X13687682Y-13112198D02*
X13697205Y-13102674D01*
X13697205Y-13102674D02*
X13697205Y-13121722D01*
X11865000Y-13455000D02*
X12065000Y-13655000D01*
X12065000Y-13455000D02*
X11865000Y-13655000D01*
X12306729Y-13446484D02*
X12430539Y-13446484D01*
X12430539Y-13446484D02*
X12363872Y-13522674D01*
X12363872Y-13522674D02*
X12392443Y-13522674D01*
X12392443Y-13522674D02*
X12411491Y-13532198D01*
X12411491Y-13532198D02*
X12421015Y-13541722D01*
X12421015Y-13541722D02*
X12430539Y-13560769D01*
X12430539Y-13560769D02*
X12430539Y-13608388D01*
X12430539Y-13608388D02*
X12421015Y-13627436D01*
X12421015Y-13627436D02*
X12411491Y-13636960D01*
X12411491Y-13636960D02*
X12392443Y-13646484D01*
X12392443Y-13646484D02*
X12335301Y-13646484D01*
X12335301Y-13646484D02*
X12316253Y-13636960D01*
X12316253Y-13636960D02*
X12306729Y-13627436D01*
X12516253Y-13627436D02*
X12525777Y-13636960D01*
X12525777Y-13636960D02*
X12516253Y-13646484D01*
X12516253Y-13646484D02*
X12506729Y-13636960D01*
X12506729Y-13636960D02*
X12516253Y-13627436D01*
X12516253Y-13627436D02*
X12516253Y-13646484D01*
X12601967Y-13465531D02*
X12611491Y-13456008D01*
X12611491Y-13456008D02*
X12630539Y-13446484D01*
X12630539Y-13446484D02*
X12678158Y-13446484D01*
X12678158Y-13446484D02*
X12697205Y-13456008D01*
X12697205Y-13456008D02*
X12706729Y-13465531D01*
X12706729Y-13465531D02*
X12716253Y-13484579D01*
X12716253Y-13484579D02*
X12716253Y-13503627D01*
X12716253Y-13503627D02*
X12706729Y-13532198D01*
X12706729Y-13532198D02*
X12592443Y-13646484D01*
X12592443Y-13646484D02*
X12716253Y-13646484D01*
X12840062Y-13446484D02*
X12859110Y-13446484D01*
X12859110Y-13446484D02*
X12878158Y-13456008D01*
X12878158Y-13456008D02*
X12887682Y-13465531D01*
X12887682Y-13465531D02*
X12897205Y-13484579D01*
X12897205Y-13484579D02*
X12906729Y-13522674D01*
X12906729Y-13522674D02*
X12906729Y-13570293D01*
X12906729Y-13570293D02*
X12897205Y-13608388D01*
X12897205Y-13608388D02*
X12887682Y-13627436D01*
X12887682Y-13627436D02*
X12878158Y-13636960D01*
X12878158Y-13636960D02*
X12859110Y-13646484D01*
X12859110Y-13646484D02*
X12840062Y-13646484D01*
X12840062Y-13646484D02*
X12821015Y-13636960D01*
X12821015Y-13636960D02*
X12811491Y-13627436D01*
X12811491Y-13627436D02*
X12801967Y-13608388D01*
X12801967Y-13608388D02*
X12792443Y-13570293D01*
X12792443Y-13570293D02*
X12792443Y-13522674D01*
X12792443Y-13522674D02*
X12801967Y-13484579D01*
X12801967Y-13484579D02*
X12811491Y-13465531D01*
X12811491Y-13465531D02*
X12821015Y-13456008D01*
X12821015Y-13456008D02*
X12840062Y-13446484D01*
X13030539Y-13446484D02*
X13049586Y-13446484D01*
X13049586Y-13446484D02*
X13068634Y-13456008D01*
X13068634Y-13456008D02*
X13078158Y-13465531D01*
X13078158Y-13465531D02*
X13087682Y-13484579D01*
X13087682Y-13484579D02*
X13097205Y-13522674D01*
X13097205Y-13522674D02*
X13097205Y-13570293D01*
X13097205Y-13570293D02*
X13087682Y-13608388D01*
X13087682Y-13608388D02*
X13078158Y-13627436D01*
X13078158Y-13627436D02*
X13068634Y-13636960D01*
X13068634Y-13636960D02*
X13049586Y-13646484D01*
X13049586Y-13646484D02*
X13030539Y-13646484D01*
X13030539Y-13646484D02*
X13011491Y-13636960D01*
X13011491Y-13636960D02*
X13001967Y-13627436D01*
X13001967Y-13627436D02*
X12992443Y-13608388D01*
X12992443Y-13608388D02*
X12982920Y-13570293D01*
X12982920Y-13570293D02*
X12982920Y-13522674D01*
X12982920Y-13522674D02*
X12992443Y-13484579D01*
X12992443Y-13484579D02*
X13001967Y-13465531D01*
X13001967Y-13465531D02*
X13011491Y-13456008D01*
X13011491Y-13456008D02*
X13030539Y-13446484D01*
X13182920Y-13646484D02*
X13182920Y-13513150D01*
X13182920Y-13532198D02*
X13192443Y-13522674D01*
X13192443Y-13522674D02*
X13211491Y-13513150D01*
X13211491Y-13513150D02*
X13240063Y-13513150D01*
X13240063Y-13513150D02*
X13259110Y-13522674D01*
X13259110Y-13522674D02*
X13268634Y-13541722D01*
X13268634Y-13541722D02*
X13268634Y-13646484D01*
X13268634Y-13541722D02*
X13278158Y-13522674D01*
X13278158Y-13522674D02*
X13297205Y-13513150D01*
X13297205Y-13513150D02*
X13325777Y-13513150D01*
X13325777Y-13513150D02*
X13344824Y-13522674D01*
X13344824Y-13522674D02*
X13354348Y-13541722D01*
X13354348Y-13541722D02*
X13354348Y-13646484D01*
X13449586Y-13646484D02*
X13449586Y-13513150D01*
X13449586Y-13532198D02*
X13459110Y-13522674D01*
X13459110Y-13522674D02*
X13478158Y-13513150D01*
X13478158Y-13513150D02*
X13506729Y-13513150D01*
X13506729Y-13513150D02*
X13525777Y-13522674D01*
X13525777Y-13522674D02*
X13535301Y-13541722D01*
X13535301Y-13541722D02*
X13535301Y-13646484D01*
X13535301Y-13541722D02*
X13544824Y-13522674D01*
X13544824Y-13522674D02*
X13563872Y-13513150D01*
X13563872Y-13513150D02*
X13592443Y-13513150D01*
X13592443Y-13513150D02*
X13611491Y-13522674D01*
X13611491Y-13522674D02*
X13621015Y-13541722D01*
X13621015Y-13541722D02*
X13621015Y-13646484D01*
X14011491Y-13436960D02*
X13840063Y-13694103D01*
X14268634Y-13446484D02*
X14287682Y-13446484D01*
X14287682Y-13446484D02*
X14306729Y-13456008D01*
X14306729Y-13456008D02*
X14316253Y-13465531D01*
X14316253Y-13465531D02*
X14325777Y-13484579D01*
X14325777Y-13484579D02*
X14335301Y-13522674D01*
X14335301Y-13522674D02*
X14335301Y-13570293D01*
X14335301Y-13570293D02*
X14325777Y-13608388D01*
X14325777Y-13608388D02*
X14316253Y-13627436D01*
X14316253Y-13627436D02*
X14306729Y-13636960D01*
X14306729Y-13636960D02*
X14287682Y-13646484D01*
X14287682Y-13646484D02*
X14268634Y-13646484D01*
X14268634Y-13646484D02*
X14249586Y-13636960D01*
X14249586Y-13636960D02*
X14240063Y-13627436D01*
X14240063Y-13627436D02*
X14230539Y-13608388D01*
X14230539Y-13608388D02*
X14221015Y-13570293D01*
X14221015Y-13570293D02*
X14221015Y-13522674D01*
X14221015Y-13522674D02*
X14230539Y-13484579D01*
X14230539Y-13484579D02*
X14240063Y-13465531D01*
X14240063Y-13465531D02*
X14249586Y-13456008D01*
X14249586Y-13456008D02*
X14268634Y-13446484D01*
X14421015Y-13627436D02*
X14430539Y-13636960D01*
X14430539Y-13636960D02*
X14421015Y-13646484D01*
X14421015Y-13646484D02*
X14411491Y-13636960D01*
X14411491Y-13636960D02*
X14421015Y-13627436D01*
X14421015Y-13627436D02*
X14421015Y-13646484D01*
X14621015Y-13646484D02*
X14506729Y-13646484D01*
X14563872Y-13646484D02*
X14563872Y-13446484D01*
X14563872Y-13446484D02*
X14544825Y-13475055D01*
X14544825Y-13475055D02*
X14525777Y-13494103D01*
X14525777Y-13494103D02*
X14506729Y-13503627D01*
X14697206Y-13465531D02*
X14706729Y-13456008D01*
X14706729Y-13456008D02*
X14725777Y-13446484D01*
X14725777Y-13446484D02*
X14773396Y-13446484D01*
X14773396Y-13446484D02*
X14792444Y-13456008D01*
X14792444Y-13456008D02*
X14801967Y-13465531D01*
X14801967Y-13465531D02*
X14811491Y-13484579D01*
X14811491Y-13484579D02*
X14811491Y-13503627D01*
X14811491Y-13503627D02*
X14801967Y-13532198D01*
X14801967Y-13532198D02*
X14687682Y-13646484D01*
X14687682Y-13646484D02*
X14811491Y-13646484D01*
X14982920Y-13446484D02*
X14944825Y-13446484D01*
X14944825Y-13446484D02*
X14925777Y-13456008D01*
X14925777Y-13456008D02*
X14916253Y-13465531D01*
X14916253Y-13465531D02*
X14897206Y-13494103D01*
X14897206Y-13494103D02*
X14887682Y-13532198D01*
X14887682Y-13532198D02*
X14887682Y-13608388D01*
X14887682Y-13608388D02*
X14897206Y-13627436D01*
X14897206Y-13627436D02*
X14906729Y-13636960D01*
X14906729Y-13636960D02*
X14925777Y-13646484D01*
X14925777Y-13646484D02*
X14963872Y-13646484D01*
X14963872Y-13646484D02*
X14982920Y-13636960D01*
X14982920Y-13636960D02*
X14992444Y-13627436D01*
X14992444Y-13627436D02*
X15001967Y-13608388D01*
X15001967Y-13608388D02*
X15001967Y-13560769D01*
X15001967Y-13560769D02*
X14992444Y-13541722D01*
X14992444Y-13541722D02*
X14982920Y-13532198D01*
X14982920Y-13532198D02*
X14963872Y-13522674D01*
X14963872Y-13522674D02*
X14925777Y-13522674D01*
X14925777Y-13522674D02*
X14906729Y-13532198D01*
X14906729Y-13532198D02*
X14897206Y-13541722D01*
X14897206Y-13541722D02*
X14887682Y-13560769D01*
X15125777Y-13446484D02*
X15144825Y-13446484D01*
X15144825Y-13446484D02*
X15163872Y-13456008D01*
X15163872Y-13456008D02*
X15173396Y-13465531D01*
X15173396Y-13465531D02*
X15182920Y-13484579D01*
X15182920Y-13484579D02*
X15192444Y-13522674D01*
X15192444Y-13522674D02*
X15192444Y-13570293D01*
X15192444Y-13570293D02*
X15182920Y-13608388D01*
X15182920Y-13608388D02*
X15173396Y-13627436D01*
X15173396Y-13627436D02*
X15163872Y-13636960D01*
X15163872Y-13636960D02*
X15144825Y-13646484D01*
X15144825Y-13646484D02*
X15125777Y-13646484D01*
X15125777Y-13646484D02*
X15106729Y-13636960D01*
X15106729Y-13636960D02*
X15097206Y-13627436D01*
X15097206Y-13627436D02*
X15087682Y-13608388D01*
X15087682Y-13608388D02*
X15078158Y-13570293D01*
X15078158Y-13570293D02*
X15078158Y-13522674D01*
X15078158Y-13522674D02*
X15087682Y-13484579D01*
X15087682Y-13484579D02*
X15097206Y-13465531D01*
X15097206Y-13465531D02*
X15106729Y-13456008D01*
X15106729Y-13456008D02*
X15125777Y-13446484D01*
X15268634Y-13446484D02*
X15268634Y-13484579D01*
X15344825Y-13446484D02*
X15344825Y-13484579D01*
X15640063Y-13722674D02*
X15630539Y-13713150D01*
X15630539Y-13713150D02*
X15611491Y-13684579D01*
X15611491Y-13684579D02*
X15601968Y-13665531D01*
X15601968Y-13665531D02*
X15592444Y-13636960D01*
X15592444Y-13636960D02*
X15582920Y-13589341D01*
X15582920Y-13589341D02*
X15582920Y-13551246D01*
X15582920Y-13551246D02*
X15592444Y-13503627D01*
X15592444Y-13503627D02*
X15601968Y-13475055D01*
X15601968Y-13475055D02*
X15611491Y-13456008D01*
X15611491Y-13456008D02*
X15630539Y-13427436D01*
X15630539Y-13427436D02*
X15640063Y-13417912D01*
X15801968Y-13513150D02*
X15801968Y-13646484D01*
X15754348Y-13436960D02*
X15706729Y-13579817D01*
X15706729Y-13579817D02*
X15830539Y-13579817D01*
X16059110Y-13646484D02*
X16059110Y-13446484D01*
X16144825Y-13646484D02*
X16144825Y-13541722D01*
X16144825Y-13541722D02*
X16135301Y-13522674D01*
X16135301Y-13522674D02*
X16116253Y-13513150D01*
X16116253Y-13513150D02*
X16087682Y-13513150D01*
X16087682Y-13513150D02*
X16068634Y-13522674D01*
X16068634Y-13522674D02*
X16059110Y-13532198D01*
X16268634Y-13646484D02*
X16249587Y-13636960D01*
X16249587Y-13636960D02*
X16240063Y-13627436D01*
X16240063Y-13627436D02*
X16230539Y-13608388D01*
X16230539Y-13608388D02*
X16230539Y-13551246D01*
X16230539Y-13551246D02*
X16240063Y-13532198D01*
X16240063Y-13532198D02*
X16249587Y-13522674D01*
X16249587Y-13522674D02*
X16268634Y-13513150D01*
X16268634Y-13513150D02*
X16297206Y-13513150D01*
X16297206Y-13513150D02*
X16316253Y-13522674D01*
X16316253Y-13522674D02*
X16325777Y-13532198D01*
X16325777Y-13532198D02*
X16335301Y-13551246D01*
X16335301Y-13551246D02*
X16335301Y-13608388D01*
X16335301Y-13608388D02*
X16325777Y-13627436D01*
X16325777Y-13627436D02*
X16316253Y-13636960D01*
X16316253Y-13636960D02*
X16297206Y-13646484D01*
X16297206Y-13646484D02*
X16268634Y-13646484D01*
X16449587Y-13646484D02*
X16430539Y-13636960D01*
X16430539Y-13636960D02*
X16421015Y-13617912D01*
X16421015Y-13617912D02*
X16421015Y-13446484D01*
X16601968Y-13636960D02*
X16582920Y-13646484D01*
X16582920Y-13646484D02*
X16544825Y-13646484D01*
X16544825Y-13646484D02*
X16525777Y-13636960D01*
X16525777Y-13636960D02*
X16516253Y-13617912D01*
X16516253Y-13617912D02*
X16516253Y-13541722D01*
X16516253Y-13541722D02*
X16525777Y-13522674D01*
X16525777Y-13522674D02*
X16544825Y-13513150D01*
X16544825Y-13513150D02*
X16582920Y-13513150D01*
X16582920Y-13513150D02*
X16601968Y-13522674D01*
X16601968Y-13522674D02*
X16611491Y-13541722D01*
X16611491Y-13541722D02*
X16611491Y-13560769D01*
X16611491Y-13560769D02*
X16516253Y-13579817D01*
X16687682Y-13636960D02*
X16706730Y-13646484D01*
X16706730Y-13646484D02*
X16744825Y-13646484D01*
X16744825Y-13646484D02*
X16763872Y-13636960D01*
X16763872Y-13636960D02*
X16773396Y-13617912D01*
X16773396Y-13617912D02*
X16773396Y-13608388D01*
X16773396Y-13608388D02*
X16763872Y-13589341D01*
X16763872Y-13589341D02*
X16744825Y-13579817D01*
X16744825Y-13579817D02*
X16716253Y-13579817D01*
X16716253Y-13579817D02*
X16697206Y-13570293D01*
X16697206Y-13570293D02*
X16687682Y-13551246D01*
X16687682Y-13551246D02*
X16687682Y-13541722D01*
X16687682Y-13541722D02*
X16697206Y-13522674D01*
X16697206Y-13522674D02*
X16716253Y-13513150D01*
X16716253Y-13513150D02*
X16744825Y-13513150D01*
X16744825Y-13513150D02*
X16763872Y-13522674D01*
X16840063Y-13722674D02*
X16849587Y-13713150D01*
X16849587Y-13713150D02*
X16868634Y-13684579D01*
X16868634Y-13684579D02*
X16878158Y-13665531D01*
X16878158Y-13665531D02*
X16887682Y-13636960D01*
X16887682Y-13636960D02*
X16897206Y-13589341D01*
X16897206Y-13589341D02*
X16897206Y-13551246D01*
X16897206Y-13551246D02*
X16887682Y-13503627D01*
X16887682Y-13503627D02*
X16878158Y-13475055D01*
X16878158Y-13475055D02*
X16868634Y-13456008D01*
X16868634Y-13456008D02*
X16849587Y-13427436D01*
X16849587Y-13427436D02*
X16840063Y-13417912D01*
X17201968Y-13722674D02*
X17192444Y-13713150D01*
X17192444Y-13713150D02*
X17173396Y-13684579D01*
X17173396Y-13684579D02*
X17163873Y-13665531D01*
X17163873Y-13665531D02*
X17154349Y-13636960D01*
X17154349Y-13636960D02*
X17144825Y-13589341D01*
X17144825Y-13589341D02*
X17144825Y-13551246D01*
X17144825Y-13551246D02*
X17154349Y-13503627D01*
X17154349Y-13503627D02*
X17163873Y-13475055D01*
X17163873Y-13475055D02*
X17173396Y-13456008D01*
X17173396Y-13456008D02*
X17192444Y-13427436D01*
X17192444Y-13427436D02*
X17201968Y-13417912D01*
X17278158Y-13513150D02*
X17278158Y-13646484D01*
X17278158Y-13532198D02*
X17287682Y-13522674D01*
X17287682Y-13522674D02*
X17306730Y-13513150D01*
X17306730Y-13513150D02*
X17335301Y-13513150D01*
X17335301Y-13513150D02*
X17354349Y-13522674D01*
X17354349Y-13522674D02*
X17363873Y-13541722D01*
X17363873Y-13541722D02*
X17363873Y-13646484D01*
X17487682Y-13646484D02*
X17468634Y-13636960D01*
X17468634Y-13636960D02*
X17459111Y-13627436D01*
X17459111Y-13627436D02*
X17449587Y-13608388D01*
X17449587Y-13608388D02*
X17449587Y-13551246D01*
X17449587Y-13551246D02*
X17459111Y-13532198D01*
X17459111Y-13532198D02*
X17468634Y-13522674D01*
X17468634Y-13522674D02*
X17487682Y-13513150D01*
X17487682Y-13513150D02*
X17516254Y-13513150D01*
X17516254Y-13513150D02*
X17535301Y-13522674D01*
X17535301Y-13522674D02*
X17544825Y-13532198D01*
X17544825Y-13532198D02*
X17554349Y-13551246D01*
X17554349Y-13551246D02*
X17554349Y-13608388D01*
X17554349Y-13608388D02*
X17544825Y-13627436D01*
X17544825Y-13627436D02*
X17535301Y-13636960D01*
X17535301Y-13636960D02*
X17516254Y-13646484D01*
X17516254Y-13646484D02*
X17487682Y-13646484D01*
X17611492Y-13513150D02*
X17687682Y-13513150D01*
X17640063Y-13446484D02*
X17640063Y-13617912D01*
X17640063Y-13617912D02*
X17649587Y-13636960D01*
X17649587Y-13636960D02*
X17668634Y-13646484D01*
X17668634Y-13646484D02*
X17687682Y-13646484D01*
X17906730Y-13513150D02*
X17906730Y-13713150D01*
X17906730Y-13522674D02*
X17925777Y-13513150D01*
X17925777Y-13513150D02*
X17963873Y-13513150D01*
X17963873Y-13513150D02*
X17982920Y-13522674D01*
X17982920Y-13522674D02*
X17992444Y-13532198D01*
X17992444Y-13532198D02*
X18001968Y-13551246D01*
X18001968Y-13551246D02*
X18001968Y-13608388D01*
X18001968Y-13608388D02*
X17992444Y-13627436D01*
X17992444Y-13627436D02*
X17982920Y-13636960D01*
X17982920Y-13636960D02*
X17963873Y-13646484D01*
X17963873Y-13646484D02*
X17925777Y-13646484D01*
X17925777Y-13646484D02*
X17906730Y-13636960D01*
X18116254Y-13646484D02*
X18097206Y-13636960D01*
X18097206Y-13636960D02*
X18087682Y-13617912D01*
X18087682Y-13617912D02*
X18087682Y-13446484D01*
X18278158Y-13646484D02*
X18278158Y-13541722D01*
X18278158Y-13541722D02*
X18268635Y-13522674D01*
X18268635Y-13522674D02*
X18249587Y-13513150D01*
X18249587Y-13513150D02*
X18211492Y-13513150D01*
X18211492Y-13513150D02*
X18192444Y-13522674D01*
X18278158Y-13636960D02*
X18259111Y-13646484D01*
X18259111Y-13646484D02*
X18211492Y-13646484D01*
X18211492Y-13646484D02*
X18192444Y-13636960D01*
X18192444Y-13636960D02*
X18182920Y-13617912D01*
X18182920Y-13617912D02*
X18182920Y-13598865D01*
X18182920Y-13598865D02*
X18192444Y-13579817D01*
X18192444Y-13579817D02*
X18211492Y-13570293D01*
X18211492Y-13570293D02*
X18259111Y-13570293D01*
X18259111Y-13570293D02*
X18278158Y-13560769D01*
X18344825Y-13513150D02*
X18421015Y-13513150D01*
X18373396Y-13446484D02*
X18373396Y-13617912D01*
X18373396Y-13617912D02*
X18382920Y-13636960D01*
X18382920Y-13636960D02*
X18401968Y-13646484D01*
X18401968Y-13646484D02*
X18421015Y-13646484D01*
X18563873Y-13636960D02*
X18544825Y-13646484D01*
X18544825Y-13646484D02*
X18506730Y-13646484D01*
X18506730Y-13646484D02*
X18487682Y-13636960D01*
X18487682Y-13636960D02*
X18478158Y-13617912D01*
X18478158Y-13617912D02*
X18478158Y-13541722D01*
X18478158Y-13541722D02*
X18487682Y-13522674D01*
X18487682Y-13522674D02*
X18506730Y-13513150D01*
X18506730Y-13513150D02*
X18544825Y-13513150D01*
X18544825Y-13513150D02*
X18563873Y-13522674D01*
X18563873Y-13522674D02*
X18573396Y-13541722D01*
X18573396Y-13541722D02*
X18573396Y-13560769D01*
X18573396Y-13560769D02*
X18478158Y-13579817D01*
X18744825Y-13646484D02*
X18744825Y-13446484D01*
X18744825Y-13636960D02*
X18725777Y-13646484D01*
X18725777Y-13646484D02*
X18687682Y-13646484D01*
X18687682Y-13646484D02*
X18668635Y-13636960D01*
X18668635Y-13636960D02*
X18659111Y-13627436D01*
X18659111Y-13627436D02*
X18649587Y-13608388D01*
X18649587Y-13608388D02*
X18649587Y-13551246D01*
X18649587Y-13551246D02*
X18659111Y-13532198D01*
X18659111Y-13532198D02*
X18668635Y-13522674D01*
X18668635Y-13522674D02*
X18687682Y-13513150D01*
X18687682Y-13513150D02*
X18725777Y-13513150D01*
X18725777Y-13513150D02*
X18744825Y-13522674D01*
X18821016Y-13722674D02*
X18830539Y-13713150D01*
X18830539Y-13713150D02*
X18849587Y-13684579D01*
X18849587Y-13684579D02*
X18859111Y-13665531D01*
X18859111Y-13665531D02*
X18868635Y-13636960D01*
X18868635Y-13636960D02*
X18878158Y-13589341D01*
X18878158Y-13589341D02*
X18878158Y-13551246D01*
X18878158Y-13551246D02*
X18868635Y-13503627D01*
X18868635Y-13503627D02*
X18859111Y-13475055D01*
X18859111Y-13475055D02*
X18849587Y-13456008D01*
X18849587Y-13456008D02*
X18830539Y-13427436D01*
X18830539Y-13427436D02*
X18821016Y-13417912D01*
M02*
